<svg xmlns="http://www.w3.org/2000/svg" xmlns:xlink="http://www.w3.org/1999/xlink" width="16" height="16" viewBox="0 0 16 16">
  <defs>
    <clipPath id="clip-path">
      <rect id="Rectángulo_258" data-name="Rectángulo 258" width="16" height="16" fill="none"/>
    </clipPath>
  </defs>
  <g id="Grupo_433" data-name="Grupo 433" transform="translate(-197 -35)">
    <g id="Grupo_219" data-name="Grupo 219" transform="translate(197 35)">
      <g id="Grupo_218" data-name="Grupo 218" clip-path="url(#clip-path)">
        <path id="Trazado_1572" data-name="Trazado 1572" d="M7.885,1.456a6.545,6.545,0,1,1-6.43,6.658,6.553,6.553,0,0,1,6.43-6.658M7.86,0h0A8,8,0,1,0,16,7.861,8,8,0,0,0,7.86,0" transform="translate(0 0)" fill="#bd181b"/>
        <path id="Trazado_1573" data-name="Trazado 1573" d="M10.624,14.35a.727.727,0,1,1-.74-.714.727.727,0,0,1,.74.714" transform="translate(-1.834 -2.727)" fill="#bd181b"/>
        <path id="Trazado_1574" data-name="Trazado 1574" d="M9.726,4.546a.727.727,0,0,0-.714.74l.076,4.363a.727.727,0,0,0,1.454-.026L10.466,5.26a.727.727,0,0,0-.74-.714" transform="translate(-1.802 -0.909)" fill="#bd181b"/>
      </g>
    </g>
  </g>
</svg>
