<svg xmlns="http://www.w3.org/2000/svg" width="17.625" height="18" viewBox="0 0 17.625 18">
  <g id="Grupo_452" data-name="Grupo 452" transform="translate(-903.765 -135)">
    <path id="Trazado_1868" data-name="Trazado 1868" d="M919.952,146.559a.813.813,0,0,0-.812.812v.608a.375.375,0,0,1-.375.375h-13a.375.375,0,0,1-.375-.375v-.608a.376.376,0,0,1,.375-.375h.812a.812.812,0,0,0,.813-.812V143a4.876,4.876,0,0,1,6.16-4.7.812.812,0,1,0,.429-1.567,6.542,6.542,0,0,0-.9-.179v-.738a.813.813,0,1,0-1.625,0v.738A6.509,6.509,0,0,0,905.765,143v2.371a2,2,0,0,0-2,2v.608a2,2,0,0,0,2,2h13a2,2,0,0,0,2-2v-.608A.813.813,0,0,0,919.952,146.559Z" fill="#e20025"/>
    <path id="Trazado_1869" data-name="Trazado 1869" d="M913.952,151.375h-3.375a.813.813,0,0,0,0,1.625h3.375a.813.813,0,1,0,0-1.625Z" fill="#e20025"/>
    <path id="Trazado_1870" data-name="Trazado 1870" d="M921.211,143.621l-.462-.263a.365.365,0,0,1-.181-.375,3,3,0,0,0,0-.964.365.365,0,0,1,.181-.375l.462-.263a.372.372,0,0,0,.132-.5l-.73-1.264a.367.367,0,0,0-.317-.183.361.361,0,0,0-.184.05l-.454.265a.365.365,0,0,1-.411-.029,3.449,3.449,0,0,0-.845-.486.365.365,0,0,1-.228-.341v-.53a.365.365,0,0,0-.365-.365h-1.461a.365.365,0,0,0-.365.365v.53a.365.365,0,0,1-.228.341,3.451,3.451,0,0,0-.845.486.365.365,0,0,1-.411.029l-.458-.267a.359.359,0,0,0-.181-.048.364.364,0,0,0-.316.183l-.731,1.264a.369.369,0,0,0,.132.5l.462.261a.364.364,0,0,1,.18.375,3.117,3.117,0,0,0,0,.964.364.364,0,0,1-.18.375l-.462.263a.369.369,0,0,0-.133.5l.731,1.264a.365.365,0,0,0,.5.133l.454-.265a.38.38,0,0,1,.411.029,3.449,3.449,0,0,0,.845.486.365.365,0,0,1,.228.341v.53a.365.365,0,0,0,.365.365h1.461a.365.365,0,0,0,.365-.365v-.529a.364.364,0,0,1,.228-.341,3.449,3.449,0,0,0,.845-.486.365.365,0,0,1,.411-.029l.458.267a.366.366,0,0,0,.5-.133l.73-1.264h0A.374.374,0,0,0,921.211,143.621Zm-2.1-1.016a1.926,1.926,0,0,1-1.926,1.926h-.211a1.926,1.926,0,0,1-1.926-1.926v-.21a1.926,1.926,0,0,1,1.926-1.926h.211a1.926,1.926,0,0,1,1.926,1.926Z" fill="#e20025"/>
  </g>
</svg>
