<svg id="Grupo_377" data-name="Grupo 377" xmlns="http://www.w3.org/2000/svg" xmlns:xlink="http://www.w3.org/1999/xlink" width="32" height="32" viewBox="0 0 32 32">
  <defs>
    <clipPath id="clip-path">
      <rect id="Rect치ngulo_382" data-name="Rect치ngulo 382" width="32" height="32" fill="none"/>
    </clipPath>
  </defs>
  <g id="Grupo_376" data-name="Grupo 376" clip-path="url(#clip-path)">
    <path id="Trazado_1800" data-name="Trazado 1800" d="M24.656,8.063H22V9.438h2.656a.625.625,0,0,1,.625.625v7.879c.073,0,.146,0,.219,0a5.114,5.114,0,0,1,1.156.132V10.063a2,2,0,0,0-2-2M5.344,24.313a.626.626,0,0,1-.625-.626V10.063a.625.625,0,0,1,.625-.625H8V8.063H5.344a2,2,0,0,0-2,2V23.687a2,2,0,0,0,2,2H21.171a5.05,5.05,0,0,1-.589-1.375ZM19,8.063H11V9.438h8Z" fill="#e20025"/>
    <rect id="Rect치ngulo_381" data-name="Rect치ngulo 381" width="21.75" height="1.375" transform="translate(4.14 13.313)" fill="#e20025"/>
    <path id="Trazado_1801" data-name="Trazado 1801" d="M9.5,11.688A2.19,2.19,0,0,1,7.312,9.5v-2a2.188,2.188,0,0,1,4.376,0v2A2.19,2.19,0,0,1,9.5,11.688m0-5a.813.813,0,0,0-.812.812v2a.812.812,0,0,0,1.624,0v-2A.813.813,0,0,0,9.5,6.688" fill="#e20025"/>
    <path id="Trazado_1802" data-name="Trazado 1802" d="M20.5,11.688A2.19,2.19,0,0,1,18.312,9.5v-2a2.188,2.188,0,0,1,4.376,0v2A2.19,2.19,0,0,1,20.5,11.688m0-5a.813.813,0,0,0-.812.812v2a.812.812,0,0,0,1.624,0v-2a.813.813,0,0,0-.812-.812" fill="#e20025"/>
    <path id="Trazado_1803" data-name="Trazado 1803" d="M25.5,29.209a6.188,6.188,0,1,1,6.187-6.188A6.194,6.194,0,0,1,25.5,29.209m0-11a4.813,4.813,0,1,0,4.812,4.812A4.817,4.817,0,0,0,25.5,18.209" fill="#e20025"/>
    <path id="Trazado_1804" data-name="Trazado 1804" d="M26.093,19.9h0a.625.625,0,0,0-.488,1.015L26.793,22.4H24.1a.625.625,0,1,0,0,1.25h2.688L25.6,25.131a.629.629,0,0,0-.137.391.625.625,0,0,0,1.113.39l2.031-2.438a1.121,1.121,0,0,0,.076-.135l.009-.019.009-.015a.342.342,0,0,0,.03-.058.648.648,0,0,0,.043-.2l0-.022a.1.1,0,0,0,0-.026.627.627,0,0,0-.042-.2.417.417,0,0,0-.03-.06l-.009-.014-.01-.02a2.009,2.009,0,0,0-.085-.19l-2.02-2.383a.624.624,0,0,0-.489-.234" fill="#e20025"/>
    <path id="Trazado_1805" data-name="Trazado 1805" d="M28.781,23a.806.806,0,0,1-.81.75H23.029a.75.75,0,0,1,0-1.5h4.942a.806.806,0,0,1,.81.75" fill="#e20025"/>
  </g>
</svg>
