<svg xmlns="http://www.w3.org/2000/svg" width="19.788" height="14" viewBox="0 0 19.788 14">
  <g id="Grupo_401" data-name="Grupo 401" transform="translate(0)">
    <g id="Grupo_402" data-name="Grupo 402">
      <path id="Trazado_1813" data-name="Trazado 1813" d="M9.894,3h0a4,4,0,1,0,4,4,4,4,0,0,0-4-4m0,7a3,3,0,1,1,3-3,3,3,0,0,1-3,3" fill="#333"/>
      <path id="Trazado_1814" data-name="Trazado 1814" d="M19.692,6.661C18.82,5.262,15.188,0,9.894,0S.969,5.262.1,6.661a.641.641,0,0,0,0,.677C.969,8.738,4.6,14,9.894,14s8.926-5.262,9.8-6.662a.641.641,0,0,0,0-.677m-3.9,3.785A8.9,8.9,0,0,1,9.894,13,8.9,8.9,0,0,1,4,10.446,17.406,17.406,0,0,1,1.067,7,17.406,17.406,0,0,1,4,3.554,8.9,8.9,0,0,1,9.894,1a8.9,8.9,0,0,1,5.893,2.554A17.42,17.42,0,0,1,18.722,7a17.42,17.42,0,0,1-2.935,3.446" fill="#333"/>
    </g>
  </g>
</svg>
