<svg xmlns="http://www.w3.org/2000/svg" width="19" height="18" viewBox="0 0 19 18">
  <path id="Trazado_1860" data-name="Trazado 1860" d="M993.8,6h-.325V3l-3-3H980.146a1.674,1.674,0,0,0-1.674,1.674V6h-.326a1.674,1.674,0,0,0-1.674,1.674V13.33A1.674,1.674,0,0,0,978.146,15h.326v1.322A1.674,1.674,0,0,0,980.146,18H991.8a1.675,1.675,0,0,0,1.675-1.674V15h.325a1.675,1.675,0,0,0,1.675-1.674V7.674A1.675,1.675,0,0,0,993.8,6Zm-4.325-5h.585l2.415,2.412V4h-2.128a.873.873,0,0,1-.872-.872Zm-10,.672A.675.675,0,0,1,980.146,1h8.326V3.128A1.872,1.872,0,0,0,990.344,5h2.128V6h-13Zm10.213,10.385v.95h-3.534V8.1h1.264v3.958Zm-4.453.079v.871h-2.869v-.871h.8V8.971h-.8V8.1h2.869v.87h-.8v3.167Zm-7.01.871V8.1h3.511V9.05h-2.254v.913h2.089v.949h-2.089v2.1Zm14.25,3.317A.676.676,0,0,1,991.8,17H980.146a.675.675,0,0,1-.674-.674V15h13Zm1.44-7.276h-2.286V9.9h2.122v.949h-2.122v1.213h2.286v.95h-3.543V8.1h3.543Z" transform="translate(-976.472)" fill="#3d3a4b"/>
</svg>
