<svg xmlns="http://www.w3.org/2000/svg" width="19" height="18" viewBox="0 0 19 18">
  <g id="Grupo_450" data-name="Grupo 450" transform="translate(-1332.901)">
    <g id="Grupo_444" data-name="Grupo 444">
      <path id="Trazado_1861" data-name="Trazado 1861" d="M1350.227,6h-.326V3l-3-3h-10.325a1.675,1.675,0,0,0-1.675,1.674V6h-.325a1.675,1.675,0,0,0-1.675,1.674V13.33A1.675,1.675,0,0,0,1334.576,15h.325v1.322A1.675,1.675,0,0,0,1336.576,18h11.651a1.674,1.674,0,0,0,1.674-1.674V15h.326a1.674,1.674,0,0,0,1.674-1.674V7.674A1.674,1.674,0,0,0,1350.227,6ZM1345.9,1h.586l2.414,2.412V4h-2.128a.873.873,0,0,1-.872-.872Zm-10,.672a.676.676,0,0,1,.675-.674h8.325V3.128A1.872,1.872,0,0,0,1346.773,5h2.128V6h-13Zm7.815,7.977a1.857,1.857,0,0,1-.115.644,1.429,1.429,0,0,1-.329.529,2.017,2.017,0,0,1-.653.438,2.362,2.362,0,0,1-.9.149h-.786v1.6h-1.264V8.1h2.08a3.275,3.275,0,0,1,.788.08,1.881,1.881,0,0,1,.568.242,1.308,1.308,0,0,1,.452.5A1.577,1.577,0,0,1,1343.716,9.651Zm-8.2,2.346h.118c.106.04.215.077.329.111a1.566,1.566,0,0,0,.438.051,1.215,1.215,0,0,0,.531-.093.548.548,0,0,0,.265-.257.942.942,0,0,0,.086-.355c.006-.128.01-.293.01-.493V9.005h-1.122V8.1h2.385v3.467a1.581,1.581,0,0,1-.115.6,1.244,1.244,0,0,1-.342.476,1.71,1.71,0,0,1-.579.321,2.661,2.661,0,0,1-.839.114q-.339,0-.639-.025a4.63,4.63,0,0,1-.526-.07Zm13.384,4.329a.675.675,0,0,1-.674.674h-11.651a.676.676,0,0,1-.675-.674V15h13Zm.016-3.6a6.468,6.468,0,0,1-.872.255,4.709,4.709,0,0,1-1.082.127,2.71,2.71,0,0,1-1.958-.68,2.486,2.486,0,0,1-.707-1.881,2.468,2.468,0,0,1,.714-1.844,2.72,2.72,0,0,1,1.99-.7,4.722,4.722,0,0,1,.922.087,4.09,4.09,0,0,1,.974.348v1.15h-.142c-.061-.046-.151-.111-.27-.2a3.4,3.4,0,0,0-.342-.216A2.288,2.288,0,0,0,1347.7,9a1.872,1.872,0,0,0-.541-.076,1.776,1.776,0,0,0-.609.1,1.415,1.415,0,0,0-.49.3,1.391,1.391,0,0,0-.327.5,1.893,1.893,0,0,0-.12.7,1.684,1.684,0,0,0,.431,1.245,1.722,1.722,0,0,0,1.273.432l.16,0c.058,0,.111-.006.159-.01v-.962h-.977v-.927h2.26Z" fill="#b95d04"/>
      <path id="Trazado_1862" data-name="Trazado 1862" d="M1342.038,9.113a1.149,1.149,0,0,0-.385-.087c-.125-.005-.291-.008-.5-.008h-.217v1.466h.362a2.974,2.974,0,0,0,.531-.039.751.751,0,0,0,.351-.158.609.609,0,0,0,.176-.251,1.039,1.039,0,0,0,.054-.357.577.577,0,0,0-.112-.357A.6.6,0,0,0,1342.038,9.113Z" fill="#b95d04"/>
    </g>
  </g>
</svg>
