<svg xmlns="http://www.w3.org/2000/svg" width="19" height="18" viewBox="0 0 19 18">
  <g id="Grupo_436" data-name="Grupo 436" transform="translate(-1346.894)">
    <path id="Trazado_1838" data-name="Trazado 1838" d="M1364.22,6h-.326V3l-3-3h-10.325a1.675,1.675,0,0,0-1.675,1.674V6h-.325a1.675,1.675,0,0,0-1.675,1.674V13.33A1.675,1.675,0,0,0,1348.569,15h.325v1.322A1.675,1.675,0,0,0,1350.569,18h11.651a1.674,1.674,0,0,0,1.674-1.674V15h.326a1.674,1.674,0,0,0,1.674-1.674V7.674A1.674,1.674,0,0,0,1364.22,6Zm-4.326-5h.586l2.414,2.412V4h-2.128a.873.873,0,0,1-.872-.872Zm-10,.672a.676.676,0,0,1,.675-.674h8.325V3.128A1.872,1.872,0,0,0,1360.766,5h2.128V6h-13Zm9.2,8.886a2.4,2.4,0,0,1-.313,1.227,2.283,2.283,0,0,1-.79.833,2.416,2.416,0,0,1-.786.3,5.233,5.233,0,0,1-1.014.086h-1.727V8.1h1.777a4.628,4.628,0,0,1,1.033.1,2.4,2.4,0,0,1,.731.285,2.238,2.238,0,0,1,.8.835A2.518,2.518,0,0,1,1359.1,10.56ZM1349.682,8.1h2.08a3.27,3.27,0,0,1,.788.081,1.856,1.856,0,0,1,.568.242,1.308,1.308,0,0,1,.452.5,1.574,1.574,0,0,1,.157.728,1.85,1.85,0,0,1-.116.644,1.409,1.409,0,0,1-.329.529,2,2,0,0,1-.653.439,2.363,2.363,0,0,1-.9.148h-.786v1.6h-1.264Zm13.212,8.225a.675.675,0,0,1-.674.674h-11.651a.676.676,0,0,1-.675-.674V15h13Zm.59-7.276h-2.254v.913h2.09v.949h-2.09v2.1h-1.257V8.1h3.511Z" fill="#bb0220"/>
    <path id="Trazado_1839" data-name="Trazado 1839" d="M1357.058,9.182a1.443,1.443,0,0,0-.4-.13,3.934,3.934,0,0,0-.61-.035h-.32v3.072h.32a3.848,3.848,0,0,0,.661-.041,1.479,1.479,0,0,0,.411-.15,1.213,1.213,0,0,0,.507-.529,1.856,1.856,0,0,0,.161-.819,1.8,1.8,0,0,0-.176-.829A1.228,1.228,0,0,0,1357.058,9.182Z" fill="#bb0220"/>
    <path id="Trazado_1840" data-name="Trazado 1840" d="M1351.839,10.445a.76.76,0,0,0,.351-.158.611.611,0,0,0,.176-.252,1.031,1.031,0,0,0,.054-.357.577.577,0,0,0-.112-.357.6.6,0,0,0-.26-.208,1.149,1.149,0,0,0-.385-.087c-.125-.006-.291-.009-.5-.009h-.217v1.467h.362A2.974,2.974,0,0,0,1351.839,10.445Z" fill="#bb0220"/>
  </g>
</svg>
