<svg id="ehtZTXQl5oN1" xmlns="http://www.w3.org/2000/svg" xmlns:xlink="http://www.w3.org/1999/xlink" viewBox="0 0 19 18" shape-rendering="geometricPrecision" text-rendering="geometricPrecision"><g transform="translate(-539.493 0)"><path d="M556.819,6h-.326v-3l-3-3h-10.326c-.924296.000552-1.673448.749704-1.674,1.674v4.326h-.326c-.924296.000552-1.673448.749704-1.674,1.674v5.656c.002754.922734.751262,1.669453,1.674,1.67h.326v1.322c-.000796.444584.175187.871246.489181,1.18599s.740234.491745,1.184819.49201h11.652c.924296-.000552,1.673448-.749704,1.674-1.674v-1.326h.326c.924296-.000552,1.673448-.749704,1.674-1.674v-5.652c-.000552-.924296-.749704-1.673448-1.674-1.674Zm-4.326-5h.585l2.415,2.412v.588h-2.128c-.481364-.000551-.871449-.390636-.872-.872Zm-10,.672c.002194-.371003.302992-.670909.674-.672h8.326v2.128c0,1.033877.838123,1.872,1.872,1.872h2.128v1h-13Zm9.384,8.882c.035554.686205-.206241,1.357897-.671,1.864-1.064353.921206-2.643647.921206-3.708,0-.465418-.505764-.707625-1.177602-.672-1.864-.036921-.688388.205353-1.362573.672-1.87c1.065129-.916059,2.639871-.916059,3.705,0c.468181.507418.711274,1.182597.674,1.872Zm-10.323,2.453v-4.907h1.777c.346991-.005435.693495.028108,1.033.1.257305.054363.503925.150646.73.285.335658.202886.611663.490967.8.835.201329.38097.301525.807232.291,1.238.007063.429479-.100645.85306-.312,1.227-.188368.340215-.460237.626882-.79.833-.242439.145199-.508471.246738-.786.3-.33441.061491-.674011.090293-1.014.086Zm13.939,3.317c-.001098.371784-.302216.672902-.674.674h-11.652c-.371784-.001098-.672902-.302216-.674-.674v-1.324h13ZM556.755,9.6h-.145c-.061-.052-.139-.115-.232-.187-.101206-.077423-.207072-.148557-.317-.213-.124618-.071571-.255903-.13085-.392-.177-.145309-.04881-.297717-.073141-.451-.072-.172524-.000748-.343935.027652-.507.084-.166253.059216-.31772.153713-.444.277-.139713.141904-.24686.312521-.314.5-.085782.240493-.126463.494748-.12.75-.008025.262739.036161.524459.13.77.072029.184026.183669.349949.327.486.12872.117888.281607.206276.448.259.157518.050091.321711.076052.487.077.154582-.000236.308268-.023491.456-.069.146183-.044047.286021-.106907.416-.187.104277-.060018.204493-.126828.3-.2.092-.072.168-.135.227-.187h.132v1.173c-.123.055-.24.107-.352.155-.114376.049568-.231978.09133-.352.125-.148168.043985-.298752.079377-.451.106-.191727.027466-.385348.039504-.579.036-.342982.0033-.684076-.051126-1.009-.161-.608927-.203784-1.091156-.67496-1.309-1.279-.240885-.700032-.244049-1.459987-.009-2.162.109188-.304302.282034-.581811.507-.814.223573-.224624.494021-.397068.792-.505.33009-.121134.679402-.181442,1.031-.178.186581-.001087.373017.010607.558.035.154739.020787.308035.051179.459.091.136371.037488.270016.084263.4.14.119.051.224.1.314.143Z" fill="#0079bf"/><path d="M548.511,9.294c-.123799.149156-.215081.322524-.268.509-.071679.244402-.105405.498361-.1.753-.005849.252693.027892.504743.1.747.055143.182046.144769.351793.264.5.103617.124748.235643.222825.385.286.296817.124449.631183.124449.928,0c.150009-.064852.2821-.165036.385-.292.12634-.155729.219269-.3358.273-.529.063613-.233551.093582-.474984.089-.717.006369-.254035-.027379-.507483-.1-.751-.055229-.182412-.14559-.352265-.266-.5-.103681-.125778-.236537-.224304-.387-.287-.291433-.116621-.616567-.116621-.908,0-.151836.061477-.287128.157723-.395.281Z" fill="#0079bf"/><path d="M544.209,11.9c.219092-.120374.396036-.304995.507-.529.114653-.257394.169689-.53736.161-.819.007802-.286371-.05252-.570501-.176-.829-.122751-.235332-.318559-.424472-.558-.539-.126175-.062866-.260974-.106676-.4-.13-.202454-.027459-.406735-.03916-.611-.035h-.319v3.072h.319c.221434.005348.442918-.00837.662-.041.14506-.028951.284952-.079515.415-.15Z" fill="#0079bf"/></g><path d="M3.838,15q0-11.588-.164-11.000001h-2l3.710869-4l3.629131,4h-1.681v14Q3.838,26.588,3.838,15Z" transform="translate(0 0.000001)" fill="#1af55a" stroke="#11357d" stroke-width="0.5"/><path d="" fill="none" stroke="#3f5787" stroke-width="0.5"/></svg>
