<svg xmlns="http://www.w3.org/2000/svg" width="19" height="18" viewBox="0 0 19 18">
  <g id="Grupo_451" data-name="Grupo 451" transform="translate(-1285.127 -353)">
    <g id="Grupo_446" data-name="Grupo 446">
      <path id="Trazado_1864" data-name="Trazado 1864" d="M1299.043,363.445a.747.747,0,0,0,.35-.158.6.6,0,0,0,.176-.251,1.015,1.015,0,0,0,.055-.357.584.584,0,0,0-.112-.357.61.61,0,0,0-.26-.209,1.179,1.179,0,0,0-.385-.087c-.125-.005-.292-.008-.5-.008h-.217v1.466h.362A2.972,2.972,0,0,0,1299.043,363.445Z" fill="#0252a2"/>
      <path id="Trazado_1865" data-name="Trazado 1865" d="M1302.452,359h-.325v-3l-3-3H1288.8a1.674,1.674,0,0,0-1.674,1.674V359h-.326a1.674,1.674,0,0,0-1.674,1.674v5.656A1.674,1.674,0,0,0,1286.8,368h.326v1.322A1.674,1.674,0,0,0,1288.8,371h11.651a1.675,1.675,0,0,0,1.675-1.674V368h.325a1.675,1.675,0,0,0,1.675-1.674v-5.656A1.675,1.675,0,0,0,1302.452,359Zm-1.325,10.326a.676.676,0,0,1-.675.674H1288.8a.675.675,0,0,1-.674-.674V368h13Zm-12.659-7.275V361.1h3.866v.936l-2.44,3.022h2.572v.949h-4.116v-.919l2.441-3.039Zm4.629-.079v-.87h2.87v.87h-.8v3.167h.8v.87h-2.87v-.87h.8v-3.167Zm3.789,4.037V361.1h2.08a3.279,3.279,0,0,1,.788.08,1.841,1.841,0,0,1,.567.243,1.293,1.293,0,0,1,.453.5,1.576,1.576,0,0,1,.156.729,1.858,1.858,0,0,1-.115.644,1.442,1.442,0,0,1-.329.529,2.017,2.017,0,0,1-.653.438,2.362,2.362,0,0,1-.9.149h-.786v1.6Zm4.241-7.009h-13v-4.326a.675.675,0,0,1,.674-.674h8.326v2.128A1.872,1.872,0,0,0,1299,358h2.128Zm0-2H1299a.873.873,0,0,1-.872-.872V354h.585l2.415,2.412Z" fill="#0252a2"/>
    </g>
  </g>
</svg>
