<svg xmlns="http://www.w3.org/2000/svg" width="19" height="18" viewBox="0 0 19 18">
  <g id="Grupo_435" data-name="Grupo 435" transform="translate(-539.493)">
    <path id="Trazado_1835" data-name="Trazado 1835" d="M556.819,6h-.326V3l-3-3H543.167a1.675,1.675,0,0,0-1.674,1.674V6h-.326a1.675,1.675,0,0,0-1.674,1.674V13.33A1.675,1.675,0,0,0,541.167,15h.326v1.322A1.675,1.675,0,0,0,543.167,18h11.652a1.675,1.675,0,0,0,1.674-1.674V15h.326a1.675,1.675,0,0,0,1.674-1.674V7.674A1.675,1.675,0,0,0,556.819,6Zm-4.326-5h.585l2.415,2.412V4h-2.128a.873.873,0,0,1-.872-.872Zm-10,.672A.676.676,0,0,1,543.167,1h8.326V3.128A1.872,1.872,0,0,0,553.365,5h2.128V6h-13Zm9.384,8.882a2.56,2.56,0,0,1-.671,1.864,2.833,2.833,0,0,1-3.708,0,2.557,2.557,0,0,1-.672-1.864,2.56,2.56,0,0,1,.672-1.87,2.841,2.841,0,0,1,3.705,0A2.557,2.557,0,0,1,551.877,10.556Zm-10.323,2.453V8.1h1.777a4.636,4.636,0,0,1,1.033.1,2.4,2.4,0,0,1,.73.285,2.223,2.223,0,0,1,.8.835,2.518,2.518,0,0,1,.291,1.238,2.413,2.413,0,0,1-.312,1.227,2.291,2.291,0,0,1-.79.833,2.416,2.416,0,0,1-.786.3,5.241,5.241,0,0,1-1.014.086Zm13.939,3.317a.676.676,0,0,1-.674.674H543.167a.676.676,0,0,1-.674-.674V15h13ZM556.755,9.6h-.145c-.061-.052-.139-.115-.232-.187a3.112,3.112,0,0,0-.317-.213,2.216,2.216,0,0,0-.392-.177,1.384,1.384,0,0,0-.451-.072,1.532,1.532,0,0,0-.507.084,1.223,1.223,0,0,0-.444.277,1.372,1.372,0,0,0-.314.5,2.076,2.076,0,0,0-.12.75,1.987,1.987,0,0,0,.13.77,1.347,1.347,0,0,0,.327.486,1.2,1.2,0,0,0,.448.259,1.638,1.638,0,0,0,.487.077,1.557,1.557,0,0,0,.456-.069,1.762,1.762,0,0,0,.416-.187,2.744,2.744,0,0,0,.3-.2c.092-.072.168-.135.227-.187h.132v1.173c-.123.055-.24.107-.352.155a2.76,2.76,0,0,1-.352.125,4.015,4.015,0,0,1-.451.106,3.621,3.621,0,0,1-.579.036,3.058,3.058,0,0,1-1.009-.161,2.1,2.1,0,0,1-1.309-1.279,3.363,3.363,0,0,1-.009-2.162,2.273,2.273,0,0,1,.507-.814,2.151,2.151,0,0,1,.792-.505,2.91,2.91,0,0,1,1.031-.178,4.086,4.086,0,0,1,.558.035,3.765,3.765,0,0,1,.459.091,3.1,3.1,0,0,1,.4.14c.119.051.224.1.314.143Z" fill="#0079bf"/>
    <path id="Trazado_1836" data-name="Trazado 1836" d="M548.511,9.294a1.392,1.392,0,0,0-.268.509,2.488,2.488,0,0,0-.1.753,2.422,2.422,0,0,0,.1.747,1.484,1.484,0,0,0,.264.5,1.014,1.014,0,0,0,.385.286,1.2,1.2,0,0,0,.928,0,1.013,1.013,0,0,0,.385-.292,1.461,1.461,0,0,0,.273-.529,2.545,2.545,0,0,0,.089-.717,2.416,2.416,0,0,0-.1-.751,1.462,1.462,0,0,0-.266-.5,1,1,0,0,0-.387-.287,1.222,1.222,0,0,0-.908,0A1.047,1.047,0,0,0,548.511,9.294Z" fill="#0079bf"/>
    <path id="Trazado_1837" data-name="Trazado 1837" d="M544.209,11.9a1.223,1.223,0,0,0,.507-.529,1.871,1.871,0,0,0,.161-.819,1.809,1.809,0,0,0-.176-.829,1.226,1.226,0,0,0-.558-.539,1.426,1.426,0,0,0-.4-.13,3.948,3.948,0,0,0-.611-.035h-.319v3.072h.319a3.861,3.861,0,0,0,.662-.041A1.478,1.478,0,0,0,544.209,11.9Z" fill="#0079bf"/>
  </g>
</svg>
