<svg xmlns="http://www.w3.org/2000/svg" width="24" height="24" viewBox="0 0 24 24">
  <g id="_001-equalizer" data-name="001-equalizer" transform="translate(-1.25 -1.25)">
    <path id="Trazado_1433" data-name="Trazado 1433" d="M24.413,11.6H11.77a4.186,4.186,0,0,0-8.2,0H2.087a.837.837,0,1,0,0,1.674h1.48a4.186,4.186,0,0,0,8.2,0H24.413a.837.837,0,1,0,0-1.674ZM7.669,14.948a2.512,2.512,0,1,1,2.512-2.512A2.512,2.512,0,0,1,7.669,14.948Z" transform="translate(0 0.814)" fill="#333"/>
    <path id="Trazado_1434" data-name="Trazado 1434" d="M24.413,4.6h-2.6a4.186,4.186,0,0,0-8.2,0H2.087a.837.837,0,1,0,0,1.674H13.614a4.186,4.186,0,0,0,8.2,0h2.6a.837.837,0,1,0,0-1.674Zm-6.7,3.349a2.512,2.512,0,1,1,2.512-2.512A2.512,2.512,0,0,1,17.715,7.948Z" transform="translate(0)" fill="#333"/>
    <path id="Trazado_1435" data-name="Trazado 1435" d="M24.413,18.6h-2.6a4.186,4.186,0,0,0-8.2,0H2.087a.837.837,0,0,0,0,1.674H13.614a4.186,4.186,0,0,0,8.2,0h2.6a.837.837,0,1,0,0-1.674Zm-6.7,3.349a2.512,2.512,0,1,1,2.512-2.512A2.512,2.512,0,0,1,17.715,21.948Z" transform="translate(0 1.628)" fill="#333"/>
  </g>
</svg>
