<svg xmlns="http://www.w3.org/2000/svg" width="19" height="14" viewBox="0 0 19 14">
  <g id="Grupo_661" data-name="Grupo 661" transform="translate(-411.435 -16)">
    <path id="Trazado_2011" data-name="Trazado 2011" d="M423.91,25.8a2.226,2.226,0,0,0-1.344-3.789,3.965,3.965,0,0,0-2.124-2.212,2.227,2.227,0,1,0-3.15,0,3.964,3.964,0,0,0-2.124,2.212,2.226,2.226,0,0,0-1.344,3.789,3.969,3.969,0,0,0-2.389,3.637A.562.562,0,0,0,412,30h6.8c.023,0,.045,0,.067,0s.045,0,.068,0h6.8a.563.563,0,0,0,.563-.562A3.968,3.968,0,0,0,423.91,25.8Zm-.472-1.574a1.1,1.1,0,1,1-1.1-1.1A1.1,1.1,0,0,1,423.438,24.227Zm-4.571-7.1a1.1,1.1,0,1,1-1.1,1.1A1.1,1.1,0,0,1,418.867,17.125Zm-3.469,6a1.1,1.1,0,1,1-1.1,1.1A1.1,1.1,0,0,1,415.4,23.125Zm-2.782,5.75a2.839,2.839,0,0,1,5.565,0Zm6.251-1.353a3.981,3.981,0,0,0-1.894-1.721,2.226,2.226,0,0,0-.66-3.6,2.84,2.84,0,0,1,5.108,0,2.225,2.225,0,0,0-.659,3.6A3.983,3.983,0,0,0,418.867,27.522Zm.686,1.353a2.839,2.839,0,0,1,5.566,0Z" fill="#fff"/>
    <path id="Trazado_2012" data-name="Trazado 2012" d="M429.81,21.875h-1.375V20.5a.625.625,0,0,0-1.25,0v1.375H425.81a.625.625,0,0,0,0,1.25h1.375V24.5a.625.625,0,0,0,1.25,0V23.125h1.375a.625.625,0,0,0,0-1.25Z" fill="#fff"/>
  </g>
</svg>
