<?xml version="1.0" encoding="UTF-8"?>
<svg xmlns="http://www.w3.org/2000/svg" xmlns:xlink="http://www.w3.org/1999/xlink" viewBox="0 0 30 30" width="30px" height="30px">
<g id="surface132997956">
<path style=" stroke:none;fill-rule:nonzero;fill:rgb(14.901961%,58.823532%,17.647059%);fill-opacity:1;" d="M 15 3 C 14.867188 3 14.730469 3.015625 14.601562 3.042969 L 14.597656 3.042969 L 4.628906 5.035156 L 4.628906 5.039062 C 3.683594 5.214844 3 6.039062 3 7 L 3 23 C 3 23.960938 3.683594 24.785156 4.628906 24.964844 L 14.597656 26.960938 C 14.730469 26.988281 14.863281 27 15 27 C 16.105469 27 17 26.105469 17 25 L 17 5 C 17 3.894531 16.105469 3 15 3 Z M 19 5 L 19 8 L 21 8 L 21 10 L 19 10 L 19 12 L 21 12 L 21 14 L 19 14 L 19 16 L 21 16 L 21 18 L 19 18 L 19 20 L 21 20 L 21 22 L 19 22 L 19 25 L 25 25 C 26.105469 25 27 24.105469 27 23 L 27 7 C 27 5.894531 26.105469 5 25 5 Z M 23 8 L 24 8 C 24.550781 8 25 8.449219 25 9 C 25 9.550781 24.550781 10 24 10 L 23 10 Z M 6.1875 10 L 8.589844 10 L 9.832031 12.992188 C 9.933594 13.234375 10.015625 13.515625 10.09375 13.839844 L 10.125 13.839844 C 10.171875 13.644531 10.257812 13.351562 10.394531 12.96875 L 11.785156 10 L 13.972656 10 L 11.359375 14.957031 L 14.050781 20 L 11.71875 20 L 10.214844 16.742188 C 10.15625 16.625 10.089844 16.394531 10.035156 16.074219 L 10.011719 16.074219 C 9.976562 16.226562 9.910156 16.457031 9.808594 16.769531 L 8.296875 20 L 5.949219 20 L 8.734375 14.996094 Z M 23 12 L 24 12 C 24.550781 12 25 12.449219 25 13 C 25 13.550781 24.550781 14 24 14 L 23 14 Z M 23 16 L 24 16 C 24.550781 16 25 16.449219 25 17 C 25 17.550781 24.550781 18 24 18 L 23 18 Z M 23 20 L 24 20 C 24.550781 20 25 20.449219 25 21 C 25 21.550781 24.550781 22 24 22 L 23 22 Z M 23 20 "/>
</g>
</svg>
