<svg xmlns="http://www.w3.org/2000/svg" width="56" height="42" viewBox="0 0 56 42">
  <g id="Grupo_663" data-name="Grupo 663" transform="translate(-1024.944)">
    <path id="Trazado_2021" data-name="Trazado 2021" d="M1071.944,20.191V3a3,3,0,0,0-3-3h-41a3,3,0,0,0-3,3V32a3,3,0,0,0,3,3h31.764a10.994,10.994,0,1,0,12.236-14.809ZM1059.135,33h-31.191a1,1,0,0,1-1-1V3a1,1,0,0,1,1-1h41a1,1,0,0,1,1,1V20a10.962,10.962,0,0,0-10.809,13Zm10.809,7a9,9,0,1,1,9-9A9.01,9.01,0,0,1,1069.944,40Z" fill="#664493"/>
    <path id="Trazado_2022" data-name="Trazado 2022" d="M1065.451,6.862a1,1,0,1,0-1.013-1.723l-16.478,9.692-15.485-9.679a1,1,0,0,0-1.061,1.7l16,10a1,1,0,0,0,1.037.014l17-10Z" fill="#664493"/>
    <path id="Trazado_2023" data-name="Trazado 2023" d="M1074.944,25h-4a1,1,0,0,0,0,2h1.585l-3.293,3.293a1,1,0,0,0,1.415,1.414l3.293-3.293V30a1,1,0,0,0,2,0V26A1,1,0,0,0,1074.944,25Z" fill="#664493"/>
    <path id="Trazado_2024" data-name="Trazado 2024" d="M1074.944,33a1,1,0,0,0-1,1v1h-8V27h1a1,1,0,0,0,0-2h-2a1,1,0,0,0-1,1V36a1,1,0,0,0,1,1h10a1,1,0,0,0,1-1V34A1,1,0,0,0,1074.944,33Z" fill="#664493"/>
  </g>
</svg>
