<svg xmlns="http://www.w3.org/2000/svg" width="56" height="42" viewBox="0 0 56 42">
  <g id="spam_1_" transform="translate(-4 -11)">
    <path id="Trazado_1439" data-name="Trazado 1439" d="M50,47a1,1,0,1,1-1-1A1,1,0,0,1,50,47Zm10-5a10.993,10.993,0,0,1-21.236,4H7a3,3,0,0,1-3-3V14a3,3,0,0,1,3-3H48a3,3,0,0,1,3,3V31.191A11.012,11.012,0,0,1,60,42ZM38,42A11.013,11.013,0,0,1,49,31V14a1,1,0,0,0-1-1H7a1,1,0,0,0-1,1V43a1,1,0,0,0,1,1H38.191A10.981,10.981,0,0,1,38,42Zm20,0a9,9,0,1,0-9,9A9.011,9.011,0,0,0,58,42ZM44.862,16.493a1,1,0,0,0-1.369-.355L27.015,25.83,11.53,16.152a1,1,0,0,0-1.06,1.7l16,10a1,1,0,0,0,1.037.014l17-10a1,1,0,0,0,.355-1.369ZM49,36a1,1,0,0,0-1,1v6a1,1,0,0,0,2,0V37A1,1,0,0,0,49,36Z" fill="#f5a836"/>
  </g>
</svg>
