<svg xmlns="http://www.w3.org/2000/svg" width="56" height="42" viewBox="0 0 56 42">
  <g id="sucses" transform="translate(-4 -11)">
    <path id="Trazado_1441" data-name="Trazado 1441" d="M51,31.191V14a3,3,0,0,0-3-3H7a3,3,0,0,0-3,3V43a3,3,0,0,0,3,3H38.764A10.994,10.994,0,1,0,51,31.191ZM7,44a1,1,0,0,1-1-1V14a1,1,0,0,1,1-1H48a1,1,0,0,1,1,1V31A10.962,10.962,0,0,0,38.191,44Zm42,7a9,9,0,1,1,9-9A9.01,9.01,0,0,1,49,51Zm5.707-12.707a1,1,0,0,1,0,1.414l-7,7A1,1,0,0,1,47,47l-.071,0a1,1,0,0,1-.729-.4l-3-4a1,1,0,1,1,1.6-1.2l2.309,3.078,6.185-6.185a1,1,0,0,1,1.414,0Zm-10.2-20.431-17,10a1,1,0,0,1-1.037-.014l-16-10a1,1,0,0,1,1.06-1.7l15.486,9.679,16.478-9.692a1,1,0,1,1,1.013,1.723Z" fill="#42883e"/>
  </g>
</svg>
