<svg xmlns="http://www.w3.org/2000/svg" width="24" height="24" viewBox="0 0 24 24">
  <g id="Grupo_568" data-name="Grupo 568" transform="translate(0 -966)">
    <path id="Trazado_1984" data-name="Trazado 1984" d="M6.286,976.714v-2.285a5.714,5.714,0,1,1,11.428,0v2.285A2.286,2.286,0,0,1,20,979v5.714A2.284,2.284,0,0,1,17.714,987H6.286A2.284,2.284,0,0,1,4,984.714V979a2.286,2.286,0,0,1,2.286-2.286Zm9.143-2.285v2.285H8.571v-2.285a3.429,3.429,0,0,1,6.858,0Z" fill="#bd181b" fill-rule="evenodd"/>
    <rect id="Rectángulo_513" data-name="Rectángulo 513" width="24" height="24" transform="translate(0 966)" fill="none"/>
  </g>
</svg>
