<svg xmlns="http://www.w3.org/2000/svg" width="19.147" height="16.5" viewBox="0 0 19.147 16.5">
  <path id="_010-email" data-name="010-email" d="M4.676,20.75H19.324a2.252,2.252,0,0,0,2.25-2.25V6.5a2.252,2.252,0,0,0-2.25-2.25H4.676A2.252,2.252,0,0,0,2.426,6.5v12a2.252,2.252,0,0,0,2.25,2.25Zm14.647-1.5H4.676a.751.751,0,0,1-.75-.75V9.8l7.738,3.869a.8.8,0,0,0,.671,0L20.074,9.8v8.7a.751.751,0,0,1-.75.75ZM4.676,5.75H19.324a.751.751,0,0,1,.75.75V8.124L12,12.162,3.926,8.124V6.5a.751.751,0,0,1,.75-.75Z" transform="translate(-2.426 -4.25)" fill="#6e6e6e"/>
</svg>
