<svg id="Capa_1" data-name="Capa 1" xmlns="http://www.w3.org/2000/svg" width="17.99" height="9" viewBox="0 0 17.99 9">
  <path id="Trazado_2049" data-name="Trazado 2049" d="M4.5,1.63A2.88,2.88,0,1,1,1.62,4.51,2.881,2.881,0,0,1,4.5,1.63M4.5,0A4.5,4.5,0,1,0,9,4.5,4.494,4.494,0,0,0,4.5,0Z" fill="#3f3f3f"/>
  <path id="Trazado_2050" data-name="Trazado 2050" d="M17.18,8.56a.807.807,0,0,1-.81-.81V5.5H8.38a.81.81,0,0,1,0-1.62h8.8a.807.807,0,0,1,.81.81V7.75A.807.807,0,0,1,17.18,8.56Z" fill="#3f3f3f"/>
  <path id="Trazado_2051" data-name="Trazado 2051" d="M14.34,7.78a.807.807,0,0,1-.81-.81V5.05a.81.81,0,0,1,1.62,0V6.97A.807.807,0,0,1,14.34,7.78Z" fill="#3f3f3f"/>
</svg>
