<svg xmlns="http://www.w3.org/2000/svg" width="17.995" height="18" viewBox="0 0 17.995 18">
  <g id="Grupo_772" data-name="Grupo 772" transform="translate(48.48 -87.002)">
    <path id="Trazado_2112" data-name="Trazado 2112" d="M-39.48,93.192a2.876,2.876,0,0,1,2.87,2.87.816.816,0,0,0,.82.81.807.807,0,0,0,.81-.81,4.491,4.491,0,0,0-2.52-4.031,2.9,2.9,0,0,0,.93-2.13A2.91,2.91,0,0,0-39.48,87a2.9,2.9,0,0,0-2.91,2.9,2.9,2.9,0,0,0,.93,2.13,4.45,4.45,0,0,0-2.42,3.1.377.377,0,0,0-.1-.009,2.906,2.906,0,0,0-2.91,2.909,2.933,2.933,0,0,0,.92,2.131,4.48,4.48,0,0,0-2.51,4.03.814.814,0,0,0,.81.81h7.38a.814.814,0,0,0,.81-.81,4.48,4.48,0,0,0-2.51-4.03,2.972,2.972,0,0,0,.92-2.131,2.866,2.866,0,0,0-1.26-2.389A2.885,2.885,0,0,1-39.48,93.192Zm0-4.57A1.282,1.282,0,0,1-38.2,89.9a1.285,1.285,0,0,1-1.28,1.291A1.285,1.285,0,0,1-40.76,89.9,1.282,1.282,0,0,1-39.48,88.622Zm-4.5,8.13a1.275,1.275,0,0,1,1.28,1.279,1.276,1.276,0,0,1-1.28,1.281,1.276,1.276,0,0,1-1.28-1.281A1.275,1.275,0,0,1-43.98,96.752Zm2.76,6.62h-5.52a2.883,2.883,0,0,1,2.76-2.06A2.883,2.883,0,0,1-41.22,103.372Z" fill="#3f3f3f"/>
    <path id="Trazado_2113" data-name="Trazado 2113" d="M-30.723,95.972a.811.811,0,0,0-1.149,0l-4.363,4.363-1.7-2.239a.813.813,0,0,0-1.138-.156.814.814,0,0,0-.156,1.139l2.262,2.98a.817.817,0,0,0,.592.32h.056a.808.808,0,0,0,.574-.238l5.022-5.021A.813.813,0,0,0-30.723,95.972Z" fill="#3f3f3f"/>
  </g>
</svg>
