<svg xmlns="http://www.w3.org/2000/svg" width="18" height="18" viewBox="0 0 18 18">
  <g id="Grupo_667" data-name="Grupo 667" transform="translate(-619.662)">
    <path id="Trazado_2025" data-name="Trazado 2025" d="M628.662,0h0a9,9,0,0,0-9,9h0a9,9,0,0,0,9,9h0a9,9,0,0,0,9-9h0A9,9,0,0,0,628.662,0Zm5.215,14.215a7.375,7.375,0,0,1-10.43-10.43,7.375,7.375,0,0,1,10.43,10.43Z" fill="#664493"/>
    <path id="Trazado_2026" data-name="Trazado 2026" d="M632.662,4.182h-3.125a.818.818,0,0,0,0,1.636h1.149l-2.6,2.6a.818.818,0,0,0,1.157,1.158l2.6-2.6V8.125a.818.818,0,1,0,1.636,0V5A.818.818,0,0,0,632.662,4.182Z" fill="#664493"/>
    <path id="Trazado_2027" data-name="Trazado 2027" d="M632.662,10.432a.818.818,0,0,0-.818.818v.932H625.48V5.818h.932a.818.818,0,0,0,0-1.636h-1.75a.818.818,0,0,0-.818.818v8a.818.818,0,0,0,.818.818h8A.818.818,0,0,0,633.48,13V11.25A.818.818,0,0,0,632.662,10.432Z" fill="#664493"/>
  </g>
</svg>
