<svg id="Grupo_236" data-name="Grupo 236" xmlns="http://www.w3.org/2000/svg" xmlns:xlink="http://www.w3.org/1999/xlink" width="18" height="18" viewBox="0 0 18 18">
  <defs>
    <clipPath id="clip-path">
      <rect id="Rectángulo_267" data-name="Rectángulo 267" width="18" height="18" fill="none"/>
    </clipPath>
  </defs>
  <g id="Grupo_235" data-name="Grupo 235" clip-path="url(#clip-path)">
    <path id="Trazado_1595" data-name="Trazado 1595" d="M8.842,0A9,9,0,1,0,18,8.843,9,9,0,0,0,8.842,0m.286,16.36a7.363,7.363,0,1,1,7.234-7.49,7.372,7.372,0,0,1-7.234,7.49" fill="#3f3f3f"/>
    <path id="Trazado_1596" data-name="Trazado 1596" d="M13.207,7.01,10.789,6.7,9.673,4.535a.818.818,0,0,0-1.467.025l-1.041,2.2-2.4.393a.819.819,0,0,0-.43,1.4l1.777,1.67L5.735,12.64a.818.818,0,0,0,1.2.842l2.139-1.171,2.177,1.1a.818.818,0,0,0,1.172-.884l-.455-2.394L13.686,8.4a.818.818,0,0,0-.479-1.388M10.5,9.282a.821.821,0,0,0-.222.729l.225,1.188-1.08-.544a.819.819,0,0,0-.761.013L7.6,11.25l.184-1.2a.819.819,0,0,0-.248-.72l-.882-.829L7.851,8.31a.815.815,0,0,0,.608-.458l.517-1.1L9.53,7.833a.817.817,0,0,0,.624.436l1.2.153Z" fill="#3f3f3f"/>
  </g>
</svg>
