<?xml version="1.0" encoding="utf-8"?>
<!-- Generator: Adobe Illustrator 26.5.0, SVG Export Plug-In . SVG Version: 6.00 Build 0)  -->
<svg version="1.1" id="Capa_1" xmlns="http://www.w3.org/2000/svg" xmlns:xlink="http://www.w3.org/1999/xlink" x="0px" y="0px"
	 viewBox="0 0 24 24" style="enable-background:new 0 0 24 24;" xml:space="preserve">
<style type="text/css">
	.st0{fill:#BD181B;}
</style>
<g id="Grupo_662" transform="translate(-1125 -622)">
	<path id="Trazado_1973" class="st0" d="M1142.8,642.8h-11.5c-1.7,0-3-1.3-3-3V634c0-1.7,1.3-3,3-3h11.5c1.7,0,3,1.3,3,3v5.8
		C1145.8,641.4,1144.4,642.8,1142.8,642.8z M1131.2,632.5c-0.8,0-1.5,0.7-1.5,1.5v5.8c0,0.8,0.7,1.5,1.5,1.5h11.5
		c0.8,0,1.5-0.7,1.5-1.5V634c0-0.8-0.7-1.5-1.5-1.5H1131.2z"/>
	<path id="Trazado_2017" class="st0" d="M1142.4,632h-1.8v-2.6c0-1.9-1.6-3.5-3.5-3.5h-0.2c-1.9,0-3.5,1.6-3.5,3.5v2.6h-1.8v-2.6
		c0-2.9,2.4-5.3,5.3-5.3h0.2c2.9,0,5.3,2.4,5.3,5.3V632z"/>
</g>
</svg>
