<svg xmlns="http://www.w3.org/2000/svg" width="24" height="24" viewBox="0 0 24 24">
  <g id="Grupo_530" data-name="Grupo 530" transform="translate(-618 -488.021)">
    <path id="Trazado_1971" data-name="Trazado 1971" d="M630,499.771a4.25,4.25,0,0,1,0-8.5h0a4.25,4.25,0,0,1,0,8.5h0Zm0-7h0a2.75,2.75,0,0,0,0,5.5h0a2.75,2.75,0,0,0,0-5.5Z" fill="#6e6e6e"/>
    <path id="Trazado_1972" data-name="Trazado 1972" d="M637.75,508.771h-15.5v-.75a7.75,7.75,0,0,1,15.5,0Zm-13.955-1.5h12.41a6.25,6.25,0,0,0-12.41,0Z" fill="#6e6e6e"/>
    <rect id="Rectángulo_496" data-name="Rectángulo 496" width="24" height="24" transform="translate(618 488.021)" fill="none"/>
  </g>
</svg>
