<svg xmlns="http://www.w3.org/2000/svg" width="16.626" height="19" viewBox="0 0 16.626 19">
  <path id="_089-trash" data-name="089-trash" d="M10.125,2a1.188,1.188,0,0,0-1.062.657L8.2,4.375H4.188a1.188,1.188,0,1,0,0,2.375V18.625A2.375,2.375,0,0,0,6.563,21h9.5a2.375,2.375,0,0,0,2.375-2.375V6.75a1.188,1.188,0,1,0,0-2.375H14.422l-.86-1.718A1.188,1.188,0,0,0,12.5,2ZM7.75,9.125a1.188,1.188,0,0,1,2.375,0V16.25a1.188,1.188,0,0,1-2.375,0Zm5.938-1.188A1.188,1.188,0,0,0,12.5,9.125V16.25a1.188,1.188,0,0,0,2.375,0V9.125a1.188,1.188,0,0,0-1.188-1.188Z" transform="translate(-3 -2)" fill="#333" fill-rule="evenodd"/>
</svg>
