<svg xmlns="http://www.w3.org/2000/svg" width="24" height="24" viewBox="0 0 24 24">
  <g id="Grupo_560" data-name="Grupo 560" transform="translate(-359 -686.4)">
    <path id="Trazado_1980" data-name="Trazado 1980" d="M371,689.114a5.714,5.714,0,0,0-5.714,5.715v2.285A2.286,2.286,0,0,0,363,699.4v5.714a2.284,2.284,0,0,0,2.286,2.286h11.428A2.284,2.284,0,0,0,379,705.114V699.4a2.286,2.286,0,0,0-2.286-2.286h-9.143v-2.285a3.429,3.429,0,0,1,6.749-.858,1.146,1.146,0,0,0,.947.847,1.137,1.137,0,0,0,.847-.219,1.143,1.143,0,0,0,.42-1.2A5.718,5.718,0,0,0,371,689.114Z" fill="#333"/>
    <rect id="Rectángulo_511" data-name="Rectángulo 511" width="24" height="24" transform="translate(359 686.4)" fill="none"/>
  </g>
</svg>
