<svg id="Componente_4_3" data-name="Componente 4 – 3" xmlns="http://www.w3.org/2000/svg" width="24" height="24" viewBox="0 0 24 24">
  <path id="Trazado_1542" data-name="Trazado 1542" d="M0,0H24V24H0Z" fill="none"/>
  <path id="Trazado_1540" data-name="Trazado 1540" d="M41.1,10.8a3.6,3.6,0,1,0-2.546-1.054A3.6,3.6,0,0,0,41.1,10.8m0,2.4a7.2,7.2,0,0,1,7.2,7.2H33.9a7.2,7.2,0,0,1,7.2-7.2m9.6-4.8a1.2,1.2,0,1,0-2.4,0V9.6H47.1a1.2,1.2,0,1,0,0,2.4h1.2v1.2a1.2,1.2,0,1,0,2.4,0V12h1.2a1.2,1.2,0,1,0,0-2.4H50.7Z" transform="translate(-29.5)" fill="#333"/>
</svg>
