<svg xmlns="http://www.w3.org/2000/svg" width="19.2" height="18.77" viewBox="0 0 19.2 18.77">
  <path id="Trazado_1538" data-name="Trazado 1538" d="M3.528,7.694A2.4,2.4,0,0,0,2.4,9.73V19.2a2.4,2.4,0,0,0,2.4,2.4H19.2a2.4,2.4,0,0,0,2.4-2.4V9.73a2.4,2.4,0,0,0-1.128-2.036l-7.2-4.5a2.4,2.4,0,0,0-2.544,0ZM6.666,10.6a1.213,1.213,0,0,0-.433-.179,1.228,1.228,0,0,0-.468,0A1.2,1.2,0,0,0,5.334,12.6l6,4a1.2,1.2,0,0,0,1.332,0l6-4a1.2,1.2,0,1,0-1.332-2L12,14.158Z" transform="translate(-2.4 -2.83)" fill="#333" fill-rule="evenodd"/>
</svg>
