<svg xmlns="http://www.w3.org/2000/svg" width="16" height="13" viewBox="0 0 16 13">
  <g id="Grupo_491" data-name="Grupo 491" transform="translate(-335.268 -32)">
    <path id="Trazado_1912" data-name="Trazado 1912" d="M347.58,45H335.83a.562.562,0,0,1-.562-.562,6.438,6.438,0,1,1,12.875,0A.563.563,0,0,1,347.58,45Zm-11.158-1.125h10.566a5.313,5.313,0,0,0-10.566,0Z" fill="#fff"/>
    <path id="Trazado_1913" data-name="Trazado 1913" d="M341.7,38.875a3.438,3.438,0,1,1,3.438-3.437A3.441,3.441,0,0,1,341.7,38.875Zm0-5.75a2.313,2.313,0,1,0,2.313,2.313A2.315,2.315,0,0,0,341.7,33.125Z" fill="#fff"/>
    <path id="Trazado_1914" data-name="Trazado 1914" d="M350.643,38.125h-4a.625.625,0,0,1,0-1.25h4a.625.625,0,0,1,0,1.25Z" fill="#fff"/>
    <path id="Trazado_1915" data-name="Trazado 1915" d="M348.643,40.125a.625.625,0,0,1-.625-.625v-4a.625.625,0,0,1,1.25,0v4A.625.625,0,0,1,348.643,40.125Z" fill="#fff"/>
  </g>
</svg>
