<svg xmlns="http://www.w3.org/2000/svg" width="40" height="40" viewBox="0 0 40 40">
  <g id="Grupo_384" data-name="Grupo 384" transform="translate(-1304 -14)">
    <g id="Elipse_27" data-name="Elipse 27" transform="translate(1304 14)" fill="none" stroke="#fff" stroke-width="2">
      <circle cx="20" cy="20" r="20" stroke="none"/>
      <circle cx="20" cy="20" r="19" fill="none"/>
    </g>
    <g id="_025-user" data-name="025-user" transform="translate(1308 17)">
      <path id="Trazado_1563" data-name="Trazado 1563" d="M16,3a8,8,0,1,0,8,8,8,8,0,0,0-8-8Zm0,14a6,6,0,1,1,6-6,6,6,0,0,1-6,6Z" fill="#fff"/>
      <path id="Trazado_1564" data-name="Trazado 1564" d="M1.3,28.717a1,1,0,0,0,1.414-.02A17.5,17.5,0,0,1,16,23a17.493,17.493,0,0,1,13.283,5.7A1,1,0,1,0,30.717,27.3,19.623,19.623,0,0,0,16,21,19.626,19.626,0,0,0,1.282,27.3,1,1,0,0,0,1.3,28.717Z" fill="#fff"/>
    </g>
  </g>
</svg>
