<svg id="Grupo_304" data-name="Grupo 304" xmlns="http://www.w3.org/2000/svg" width="16" height="16" viewBox="0 0 16 16">
  <path id="Trazado_1626" data-name="Trazado 1626" d="M14.326,2H12.279V.558a.558.558,0,0,0-1.116,0V2H4.837V.558a.558.558,0,1,0-1.116,0V2H1.675A1.676,1.676,0,0,0,0,3.674V14.326A1.676,1.676,0,0,0,1.675,16H14.326A1.676,1.676,0,0,0,16,14.326V3.674A1.676,1.676,0,0,0,14.326,2m.558,12.326a.559.559,0,0,1-.558.558H1.675a.559.559,0,0,1-.558-.558V7.116H14.884Zm0-8.326H1.117V3.674a.559.559,0,0,1,.558-.558H3.721V4.442a.558.558,0,1,0,1.116,0V3.116h6.326V4.442a.558.558,0,1,0,1.116,0V3.116h2.047a.559.559,0,0,1,.558.558Z" fill="#333"/>
</svg>
