<svg id="Grupo_710" data-name="Grupo 710" xmlns="http://www.w3.org/2000/svg" xmlns:xlink="http://www.w3.org/1999/xlink" width="16" height="16" viewBox="0 0 16 16">
  <defs>
    <clipPath id="clip-path">
      <rect id="Rectángulo_257" data-name="Rectángulo 257" width="16" height="16" fill="none"/>
    </clipPath>
  </defs>
  <g id="Grupo_216" data-name="Grupo 216" clip-path="url(#clip-path)">
    <path id="Trazado_1570" data-name="Trazado 1570" d="M7.885,1.456a6.545,6.545,0,1,1-6.43,6.658,6.553,6.553,0,0,1,6.43-6.658M7.86,0h0A8,8,0,1,0,16,7.861,8,8,0,0,0,7.86,0" transform="translate(0 0)" fill="#42883e"/>
    <path id="Trazado_1571" data-name="Trazado 1571" d="M13.012,6.489a.725.725,0,0,1,.018,1.028l-5,5.179a.722.722,0,0,1-.51.222H7.467a.732.732,0,0,1-.535-.279L4.7,9.767a.727.727,0,0,1,1.147-.893l1.718,2.209,4.419-4.576A.726.726,0,0,1,13.012,6.489Z" transform="translate(-0.909 -1.257)" fill="#42883e"/>
  </g>
</svg>
