<svg xmlns="http://www.w3.org/2000/svg" width="15" height="15" viewBox="0 0 15 15">
  <g id="Grupo_474" data-name="Grupo 474" transform="translate(324 -16)">
    <path id="Trazado_1899" data-name="Trazado 1899" d="M-316.5,16a7.5,7.5,0,0,0-7.5,7.5,7.5,7.5,0,0,0,7.5,7.5,7.5,7.5,0,0,0,7.5-7.5A7.5,7.5,0,0,0-316.5,16Zm0,13.875a6.382,6.382,0,0,1-6.375-6.375,6.382,6.382,0,0,1,6.375-6.375,6.382,6.382,0,0,1,6.375,6.375A6.382,6.382,0,0,1-316.5,29.875Z" fill="#333"/>
    <path id="Trazado_1900" data-name="Trazado 1900" d="M-315.937,23.266V18.625a.562.562,0,0,0-.563-.562.561.561,0,0,0-.562.562V23.5a.562.562,0,0,0,.166.4l2.659,2.644a.561.561,0,0,0,.4.163.56.56,0,0,0,.4-.166.561.561,0,0,0,0-.8Z" fill="#333"/>
  </g>
</svg>
