<svg id="Grupo_428" data-name="Grupo 428" xmlns="http://www.w3.org/2000/svg" width="56" height="56" viewBox="0 0 56 56">
  <g id="Grupo_429" data-name="Grupo 429">
    <path id="Trazado_1828" data-name="Trazado 1828" d="M28,5.091A22.909,22.909,0,1,1,5.091,28,22.935,22.935,0,0,1,28,5.091M28,0h0A28,28,0,1,0,56,28,28,28,0,0,0,28,0" fill="#bc2428"/>
    <path id="Trazado_1829" data-name="Trazado 1829" d="M39.981,19.618,31.6,28l8.382,8.382a2.545,2.545,0,0,1-3.6,3.6L28,31.6l-8.383,8.383a2.545,2.545,0,0,1-3.6-3.6L24.4,28l-8.382-8.382a2.545,2.545,0,0,1,3.6-3.6L28,24.4l8.382-8.382a2.545,2.545,0,0,1,3.6,3.6" fill="#bc2428"/>
  </g>
</svg>
