<svg xmlns="http://www.w3.org/2000/svg" xmlns:xlink="http://www.w3.org/1999/xlink" width="16" height="16" viewBox="0 0 16 16">
  <defs>
    <clipPath id="clip-path">
      <rect id="Rectángulo_300" data-name="Rectángulo 300" width="16" height="16" fill="none"/>
    </clipPath>
  </defs>
  <g id="Grupo_264" data-name="Grupo 264" clip-path="url(#clip-path)">
    <path id="Trazado_1609" data-name="Trazado 1609" d="M7.885,1.456a6.545,6.545,0,1,1-6.43,6.658,6.553,6.553,0,0,1,6.43-6.658M7.86,0h0A8,8,0,1,0,16,7.861,8,8,0,0,0,7.86,0" transform="translate(0 0)" fill="#ff636e"/>
    <path id="Trazado_1610" data-name="Trazado 1610" d="M12.133,6.5A2.913,2.913,0,0,1,10,9.35l.026,1.546a.727.727,0,0,1-1.454.026L8.536,8.74A.727.727,0,0,1,9.25,8,1.454,1.454,0,1,0,7.77,6.571.727.727,0,0,1,6.316,6.6a2.909,2.909,0,0,1,5.818-.1" transform="translate(-1.263 -0.727)" fill="#ff636e"/>
    <path id="Trazado_1611" data-name="Trazado 1611" d="M10.64,15.259a.727.727,0,1,1-.74-.714.727.727,0,0,1,.74.714" transform="translate(-1.837 -2.909)" fill="#ff636e"/>
  </g>
</svg>
