<svg xmlns="http://www.w3.org/2000/svg" width="56" height="42" viewBox="0 0 56 42">
  <g id="help" transform="translate(-4 -11)">
    <path id="Trazado_1438" data-name="Trazado 1438" d="M51,31.191V14a3,3,0,0,0-3-3H7a3,3,0,0,0-3,3V43a3,3,0,0,0,3,3H38.764A10.994,10.994,0,1,0,51,31.191ZM7,44a1,1,0,0,1-1-1V14a1,1,0,0,1,1-1H48a1,1,0,0,1,1,1V31A10.962,10.962,0,0,0,38.191,44Zm42,7a9,9,0,1,1,9-9A9.01,9.01,0,0,1,49,51Zm4-12c0,1.86-3,3.873-3,3.873V45a1,1,0,0,1-2,0V42a1,1,0,0,1,1-1,2,2,0,1,0-2-2,1,1,0,0,1-2,0,4,4,0,0,1,8,0Zm-3,9a1,1,0,1,1-1-1A1,1,0,0,1,50,48ZM44.507,17.862l-17,10a1,1,0,0,1-1.037-.014l-16-10a1,1,0,1,1,1.06-1.695l15.486,9.679,16.478-9.693a1,1,0,1,1,1.013,1.723Z" fill="#ff636e"/>
  </g>
</svg>
