<svg xmlns="http://www.w3.org/2000/svg" width="56" height="42" viewBox="0 0 56 42">
  <g id="failed" transform="translate(-4 -11)">
    <path id="Trazado_1437" data-name="Trazado 1437" d="M51,31.191V14a3,3,0,0,0-3-3H7a3,3,0,0,0-3,3V43a3,3,0,0,0,3,3H38.764A10.994,10.994,0,1,0,51,31.191ZM7,44a1,1,0,0,1-1-1V14a1,1,0,0,1,1-1H48a1,1,0,0,1,1,1V31A10.962,10.962,0,0,0,38.191,44Zm42,7a9,9,0,1,1,9-9A9.01,9.01,0,0,1,49,51Zm4.707-12.293L50.414,42l3.293,3.293a1,1,0,1,1-1.414,1.414L49,43.414l-3.293,3.293a1,1,0,0,1-1.414-1.414L47.586,42l-3.293-3.293a1,1,0,0,1,1.414-1.414L49,40.586l3.293-3.293a1,1,0,0,1,1.414,1.414Zm-9.2-20.845-17,10a1,1,0,0,1-1.037-.014l-16-10a1,1,0,0,1,1.061-1.7l15.485,9.679,16.478-9.692a1,1,0,1,1,1.013,1.723Z" fill="#828282"/>
  </g>
</svg>
