<svg xmlns="http://www.w3.org/2000/svg" width="56" height="42" viewBox="0 0 56 42">
  <g id="star" transform="translate(-4 -11)">
    <path id="Trazado_1440" data-name="Trazado 1440" d="M51,31.191V14a3,3,0,0,0-3-3H7a3,3,0,0,0-3,3V43a3,3,0,0,0,3,3H38.764A10.994,10.994,0,1,0,51,31.191ZM7,44a1,1,0,0,1-1-1V14a1,1,0,0,1,1-1H48a1,1,0,0,1,1,1V31A10.962,10.962,0,0,0,38.191,44Zm42,7a9,9,0,1,1,9-9A9.01,9.01,0,0,1,49,51Zm5.184-11.342-2.948-.429-1.318-2.671a1,1,0,0,0-1.793,0l-1.319,2.672-2.948.429a1,1,0,0,0-.555,1.706l2.135,2.079-.505,2.936a1,1,0,0,0,1.45,1.055l2.639-1.386,2.638,1.386a1,1,0,0,0,1.45-1.055L52.6,43.443l2.135-2.079a1,1,0,0,0-.556-1.706Zm-3.353,2.719a1,1,0,0,0-.287.886l.25,1.457-1.309-.688a1,1,0,0,0-.93,0l-1.31.688.25-1.457a1,1,0,0,0-.287-.886l-1.06-1.032,1.463-.212a1,1,0,0,0,.753-.547l.655-1.327.654,1.326a1,1,0,0,0,.753.547l1.463.212ZM44.507,17.862l-17,10a1,1,0,0,1-1.037-.014l-16-10a1,1,0,0,1,1.061-1.7l15.485,9.679,16.478-9.692a1,1,0,1,1,1.013,1.723Z" fill="#3e6b88"/>
  </g>
</svg>
