<?xml version="1.0" encoding="UTF-8"?><svg id="a" xmlns="http://www.w3.org/2000/svg" width="104.004" height="51" viewBox="0 0 104.004 51"><path id="b" d="M24.573,34.736c0,2.718-2.008,4.274-4.7,4.274-1.922,.055-3.731-.908-4.757-2.534h0l2.36-2.137c.972,1.163,1.759,1.764,2.463,1.764,.602,.079,1.155-.345,1.234-.948v-.002c.01-.07,.012-.141,.007-.212,0-.811-.227-1.3-1.861-2.033-2.878-1.265-3.936-2.365-3.936-4.647-.036-2.308,1.806-4.207,4.114-4.243,.126,0,.253,0,.379,.012,1.819-.089,3.55,.787,4.555,2.305l-2.4,2.159c-.994-1.186-1.346-1.555-2.258-1.555-.552-.019-1.015,.413-1.034,.965v.071c0,.767,.372,1.2,1.843,1.845,2.919,1.288,3.995,2.49,3.995,4.916h-.004Zm-10.307-5.954c0,3.443-1.966,4.729-4.742,4.729h-1.241v5.27h-3.4v-14.521h4.89c2.589,0,4.493,1.162,4.493,4.523h0Zm-3.439,.082c0-1.286-.394-1.783-1.365-1.783h-1.179v3.609h1.117c.994,0,1.427-.518,1.427-1.826ZM50.9,2.746V48.254c-.003,1.515-1.229,2.742-2.744,2.746H2.74c-1.513-.006-2.738-1.233-2.74-2.746V2.747C.002,1.234,1.227,.006,2.74,0H48.155c1.515,.003,2.743,1.231,2.745,2.746Zm-1.174,0c0-.866-.7-1.568-1.566-1.57H2.74c-.866,.002-1.566,.704-1.565,1.57V48.254c0,.865,.7,1.567,1.565,1.569H48.155c.865-.002,1.566-.704,1.566-1.569V2.747h.005Zm54.274,0V48.254c-.003,1.515-1.23,2.743-2.745,2.746H55.841c-1.513-.006-2.738-1.233-2.74-2.746V2.747c.002-1.513,1.227-2.741,2.74-2.747h45.415c1.513,.006,2.737,1.233,2.74,2.746h.004Zm-1.174,0c0-.866-.7-1.568-1.566-1.57H55.841c-.866,.002-1.566,.704-1.565,1.57V48.254c0,.865,.7,1.567,1.565,1.569h45.415c.865-.002,1.566-.704,1.566-1.569V2.747h.004ZM36.017,31.5c0,5.124-1.946,7.508-5.218,7.508-3.248,0-5.15-2.343-5.15-7.467h0c0-5.122,1.945-7.509,5.195-7.509s5.173,2.368,5.173,7.468Zm-3.56,.042c0-3.505-.561-4.523-1.636-4.523-1.095,0-1.616,.974-1.616,4.48h0c0,3.509,.559,4.522,1.635,4.522s1.616-.974,1.616-4.479h0Zm8.7,1.119h3.3v-2.947h-3.301v-2.488h5.051v-2.967h-8.492v14.522h8.633v-2.97h-5.195v-3.152l.004,.002ZM87.466,14.1c-.047,.671-.131,1.339-.252,2,.209,.576,.287,1.191,.228,1.8-.087,1.174-.652,2.26-1.563,3.005h1.449v2.936c.009,.468-.236,.903-.639,1.14,.472,.451,.742,1.073,.748,1.726,.056,.71-.196,1.409-.692,1.92,.469,.449,.73,1.073,.719,1.722-.032,.664-.291,1.298-.734,1.794,.526,.511,.787,1.236,.708,1.965-.009,.929-.596,1.754-1.47,2.067,.259,.438,.393,.939,.388,1.448,.069,1.25-.877,2.324-2.126,2.413h-9.334c-1.276,.188-2.462-.694-2.65-1.97-.03-.205-.033-.414-.008-.62h-6.042v-10.584h5.992v-.923c.041-.406,.295-.76,.667-.928-.336-.17-.565-.497-.61-.871v-3.16h.993c-1.103-1.215-1.516-2.906-1.1-4.493l.331-1.216c-.826-1.638-.168-3.636,1.47-4.462,.658-.332,1.407-.435,2.13-.295l.479,.146c1.503-1.553,3.912-1.784,5.683-.545l.384,.4c1.9-.447,5.019,.1,4.857,3.587l-.006-.002Zm-5.338-1.3c1.483-.195,2.973,.307,4.037,1.359h0c.196-1.116-.549-2.18-1.666-2.376h-.003c-.065-.012-.13-.021-.2-.026-.879-.219-1.79,.219-2.168,1.043Zm-.379,1.211h0c.045,.5-.098,.999-.4,1.4-.4,.363-.932,.544-1.47,.5,.515,1.073,1.65,1.705,2.833,1.578,.405-1.247,.026-2.615-.963-3.476h0v-.002Zm-.245,4.725h0c-2.105-.542-3.566-2.453-3.536-4.626-1.057,.5-1.741,2.885-.27,4.37,1.006,1.069,2.667,1.18,3.806,.254v.002Zm-2.477,2.737v2.878h1.287v-3.7l-1.287,.822Zm.872-6.854c.405-.021,.717-.367,.696-.772-.02-.391-.344-.698-.736-.697-.418,.013-.747,.36-.736,.778,.024,.405,.372,.714,.777,.691h0Zm-3.434-.8c1.853-2.043,3.377-1.982,4.44-1.823,.155-.365,.409-.679,.733-.908-1.519-1.025-3.582-.623-4.606,.896-.366,.542-.563,1.181-.567,1.835Zm-.846,2.355c-.663-1.413-.622-3.055,.109-4.433-1.225,.003-2.215,.999-2.212,2.224,.003,1.178,.927,2.148,2.103,2.209Zm2.685,4.326h0c-1.347-.311-2.363-1.42-2.555-2.789-.868-.041-1.695-.378-2.345-.955-.471,2.603,1.111,5.458,4.9,3.744Zm-1.459,1.692h-3.273v1.648c0,.241,.219,.509,.68,.509h3.476v-1.473c0-.335-.457-.681-.883-.681v-.003Zm1,15.14c.04-.643,.378-1.23,.915-1.586-.556-.443-.88-1.114-.882-1.825,.002-.456,.076-.908,.218-1.341l.011-.005h-.009v.008c-.237,.136-.505,.209-.778,.214-.638,.021-3.407,0-3.407,0-.094-.013-.187-.032-.278-.057-.823-.132-1.439-.825-1.473-1.658v-2.929h-4.694v8.007h5.852v1.1c0,1.361,.872,1.547,1.937,1.547h3.171c-.377-.397-.587-.924-.587-1.472l.004-.003Zm2.164-5.863h1.387v-4.449c0-.626-.032-1.372-1.085-1.372h-5.8c-.631,0-1.027,.26-1.027,.825v4.235c-.001,.421,.34,.764,.761,.765h2.789c.4,.021,.745-.28,.777-.679v-2.817h1.379v3.005c0,.307,.526,.49,.815,.49l.004-.003Zm5.01,6.015c0-.578-.3-1.157-.838-1.157h-3.953c-.546,0-.9,.658-.9,1.157v.156c0,.455,.355,1.156,.9,1.156h3.949c.455,0,.838-.577,.838-1.156l.004-.156Zm1.022-3.684c0-.578-.3-1.043-.84-1.043h-4.973c-.54,0-.847,.581-.847,1.043v.156c0,.468,.31,1.087,.847,1.087h4.973c.541,0,.84-.508,.84-1.087v-.156Zm.011-3.527c0-.578-.3-1.033-.84-1.033h-2.522v2.231h2.522c.541,0,.84-.461,.84-1.042v-.156Zm0-3.543c0-.578-.3-1.043-.84-1.043h-2.522v2.264h2.522c.541,0,.84-.484,.84-1.065v-.156Zm-3.524-4.53c-.428,0-.884,.346-.884,.681v1.473h3.668c.337,.04,.643-.201,.683-.538v-1.616h-3.467Zm3.724-4.427c.087-1.703-1.07-3.22-2.736-3.585h0c1.393,2.87,.159,5.239-2.284,6.154,1.605,.928,3.658,.38,4.587-1.225,.238-.412,.386-.87,.434-1.344h-.001Z" fill="#fff" fill-rule="evenodd"/></svg>