<svg xmlns="http://www.w3.org/2000/svg" width="18" height="18.008" viewBox="0 0 18 18.008">
  <g id="Grupo_476" data-name="Grupo 476" transform="translate(-374.943 -775.547)">
    <path id="Trazado_1909" data-name="Trazado 1909" d="M392.7,783.464l-7.422-7.37a1.9,1.9,0,0,0-2.665,0l-7.433,7.382a.812.812,0,0,0,1.145,1.153l7.433-7.381a.266.266,0,0,1,.375,0l7.422,7.369a.812.812,0,0,0,1.145-1.153Z" fill="#3f3f3f"/>
    <path id="Trazado_1910" data-name="Trazado 1910" d="M390.968,786.3a.813.813,0,0,0-.812.812V791.8a.444.444,0,0,1-.341.125H378.06a.446.446,0,0,1-.342-.125v-4.688a.813.813,0,0,0-1.625,0v4.7a1.864,1.864,0,0,0,1.967,1.735h11.755a1.864,1.864,0,0,0,1.966-1.735v-4.7A.813.813,0,0,0,390.968,786.3Z" fill="#3f3f3f"/>
    <path id="Trazado_1911" data-name="Trazado 1911" d="M379.443,789.358a.813.813,0,0,0,.812.813h7.375a.813.813,0,0,0,.813-.813,4.505,4.505,0,0,0-2.513-4.036,2.906,2.906,0,1,0-3.974,0A4.505,4.505,0,0,0,379.443,789.358Zm4.5-7.437a1.281,1.281,0,1,1-1.281,1.281A1.283,1.283,0,0,1,383.943,781.921Zm0,4.562a2.88,2.88,0,0,1,2.758,2.063h-5.516A2.88,2.88,0,0,1,383.943,786.483Z" fill="#3f3f3f"/>
  </g>
</svg>
