<svg id="Grupo_234" data-name="Grupo 234" xmlns="http://www.w3.org/2000/svg" xmlns:xlink="http://www.w3.org/1999/xlink" width="18" height="18" viewBox="0 0 18 18">
  <defs>
    <clipPath id="clip-path">
      <rect id="Rectángulo_266" data-name="Rectángulo 266" width="18" height="18" fill="#3f3f3f"/>
    </clipPath>
  </defs>
  <g id="Grupo_233" data-name="Grupo 233" clip-path="url(#clip-path)">
    <path id="Trazado_1592" data-name="Trazado 1592" d="M8.842,0A9,9,0,1,0,18,8.843,9,9,0,0,0,8.842,0m.286,16.36a7.363,7.363,0,1,1,7.234-7.49,7.371,7.371,0,0,1-7.234,7.49" fill="#3f3f3f"/>
    <path id="Trazado_1593" data-name="Trazado 1593" d="M8.9,3.274A3.275,3.275,0,0,0,5.685,6.6a.818.818,0,1,0,1.636-.028A1.636,1.636,0,1,1,8.986,8.182a.818.818,0,0,0-.8.833l.043,2.454a.818.818,0,1,0,1.636-.029L9.831,9.7A3.273,3.273,0,0,0,8.9,3.274" fill="#3f3f3f"/>
    <path id="Trazado_1594" data-name="Trazado 1594" d="M9.071,13.09a.818.818,0,1,0,.832.8.818.818,0,0,0-.832-.8" fill="#3f3f3f"/>
  </g>
</svg>
