<svg xmlns="http://www.w3.org/2000/svg" width="18" height="18" viewBox="0 0 18 18">
  <path id="Trazado_1902" data-name="Trazado 1902" d="M438.367,706.135a2.906,2.906,0,0,0-1.987-5.027c-.033,0-.065,0-.1,0a4.512,4.512,0,0,0-2.415-3.1,2.906,2.906,0,1,0-3.974,0,4.513,4.513,0,0,0-2.414,3.1c-.033,0-.066,0-.1,0a2.906,2.906,0,0,0-1.987,5.027,4.5,4.5,0,0,0-2.513,4.036.812.812,0,0,0,.813.812h7.375a.811.811,0,0,0,.812-.812,4.5,4.5,0,0,0-2.513-4.036,2.9,2.9,0,0,0-.331-4.508,2.875,2.875,0,0,1,5.688,0,2.905,2.905,0,0,0-.331,4.508,4.5,4.5,0,0,0-2.513,4.036.812.812,0,0,0,.813.812h7.375a.811.811,0,0,0,.812-.812A4.5,4.5,0,0,0,438.367,706.135Zm-10.987-3.4a1.282,1.282,0,1,1-1.281,1.282A1.283,1.283,0,0,1,427.38,702.733Zm2.758,6.625h-5.516a2.875,2.875,0,0,1,5.516,0Zm1.742-14.75a1.282,1.282,0,1,1-1.281,1.282A1.283,1.283,0,0,1,431.88,694.608Zm5.782,9.407a1.281,1.281,0,1,1-1.282-1.282A1.283,1.283,0,0,1,437.662,704.015Zm-4.04,5.343a2.875,2.875,0,0,1,5.516,0Z" transform="translate(-422.88 -692.983)" fill="#e20025"/>
</svg>
