<svg id="Grupo_240" data-name="Grupo 240" xmlns="http://www.w3.org/2000/svg" xmlns:xlink="http://www.w3.org/1999/xlink" width="18" height="18" viewBox="0 0 18 18">
  <defs>
    <clipPath id="clip-path">
      <rect id="Rectángulo_269" data-name="Rectángulo 269" width="18" height="18" fill="none"/>
    </clipPath>
  </defs>
  <g id="Grupo_239" data-name="Grupo 239" clip-path="url(#clip-path)">
    <path id="Trazado_1599" data-name="Trazado 1599" d="M8.842,0A9,9,0,1,0,18,8.843,9,9,0,0,0,8.842,0m.286,16.36a7.363,7.363,0,1,1,7.234-7.49,7.372,7.372,0,0,1-7.234,7.49" fill="#3f3f3f"/>
    <path id="Trazado_1600" data-name="Trazado 1600" d="M10.157,8.98,12.8,6.239A.818.818,0,1,0,11.627,5.1L8.98,7.843,6.239,5.2A.818.818,0,1,0,5.1,6.374L7.844,9.02,5.2,11.761A.818.818,0,1,0,6.374,12.9L9.02,10.157,11.761,12.8A.818.818,0,1,0,12.9,11.627Z" fill="#3f3f3f"/>
  </g>
</svg>
