<svg xmlns="http://www.w3.org/2000/svg" width="15.75" height="18" viewBox="0 0 15.75 18">
  <g id="Grupo_475" data-name="Grupo 475" transform="translate(-374.943 -747.858)">
    <path id="Trazado_1904" data-name="Trazado 1904" d="M379.13,759.983h7.375a.812.812,0,0,0,.813-.812,4.5,4.5,0,0,0-2.513-4.036,2.906,2.906,0,1,0-3.974,0,4.5,4.5,0,0,0-2.513,4.036A.812.812,0,0,0,379.13,759.983Zm3.688-8.25a1.282,1.282,0,1,1-1.281,1.282A1.283,1.283,0,0,1,382.818,751.733Zm0,4.563a2.879,2.879,0,0,1,2.758,2.062H380.06A2.879,2.879,0,0,1,382.818,756.3Z" fill="#e20025"/>
    <path id="Trazado_1905" data-name="Trazado 1905" d="M388.443,747.858h-11.25a2.25,2.25,0,0,0-2.25,2.25v13.5a2.25,2.25,0,0,0,2.25,2.25h11.25a2.25,2.25,0,0,0,2.25-2.25v-13.5A2.251,2.251,0,0,0,388.443,747.858Zm.625,15.75a.626.626,0,0,1-.625.625h-11.25a.625.625,0,0,1-.625-.625v-13.5a.626.626,0,0,1,.625-.625h11.25a.627.627,0,0,1,.625.625Z" fill="#e20025"/>
    <path id="Trazado_1906" data-name="Trazado 1906" d="M384.505,761.358h0a.813.813,0,0,0,0,1.625h0a.813.813,0,1,0,0-1.625Z" fill="#e20025"/>
    <path id="Trazado_1907" data-name="Trazado 1907" d="M387.13,761.358h0a.813.813,0,0,0,0,1.625h0a.813.813,0,1,0,0-1.625Z" fill="#e20025"/>
    <path id="Trazado_1908" data-name="Trazado 1908" d="M381.88,761.358h-3.375a.813.813,0,0,0,0,1.625h3.375a.813.813,0,1,0,0-1.625Z" fill="#e20025"/>
  </g>
</svg>
