<svg xmlns="http://www.w3.org/2000/svg" width="18" height="18.063" viewBox="0 0 18 18.063">
  <g id="Grupo_576" data-name="Grupo 576" transform="translate(-298.489 -270.938)">
    <path id="Trazado_1985" data-name="Trazado 1985" d="M307.488,280a4.313,4.313,0,0,1,0-8.625h0a4.313,4.313,0,0,1,0,8.625h0Zm0-7h0a2.688,2.688,0,0,0,0,5.375h0a2.688,2.688,0,0,0,0-5.375Z" fill="#e20025"/>
    <path id="Trazado_1986" data-name="Trazado 1986" d="M314.489,289h-14a.813.813,0,0,1-.813-.812,7.813,7.813,0,1,1,15.625,0A.813.813,0,0,1,314.489,289Zm-13.135-1.625h12.269a6.188,6.188,0,0,0-12.269,0Z" fill="#e20025"/>
    <rect id="Rectángulo_514" data-name="Rectángulo 514" width="18" height="18" transform="translate(298.489 270.938)" fill="none"/>
  </g>
</svg>
