<svg xmlns="http://www.w3.org/2000/svg" width="18" height="18" viewBox="0 0 18 18">
  <g id="Grupo_472" data-name="Grupo 472" transform="translate(285.525 -64)">
    <path id="Trazado_1892" data-name="Trazado 1892" d="M-269.9,77.354h-13.625a.375.375,0,0,1-.375-.375v-.608a.376.376,0,0,1,.375-.375h.813a.812.812,0,0,0,.812-.812V72.068a4.925,4.925,0,0,1,4.824-4.943,4.921,4.921,0,0,1,1.337.172.813.813,0,0,0,1-.569.813.813,0,0,0-.569-1,6.452,6.452,0,0,0-.9-.179v-.738a.813.813,0,0,0-.813-.813h0a.812.812,0,0,0-.812.813v.739a6.569,6.569,0,0,0-5.688,6.516v2.3a2,2,0,0,0-2,2v.608a2,2,0,0,0,2,2H-269.9a.812.812,0,0,0,.813-.812A.813.813,0,0,0-269.9,77.354Z" fill="#e20025"/>
    <path id="Trazado_1893" data-name="Trazado 1893" d="M-275.337,80.375h-3.375a.813.813,0,0,0-.813.813.813.813,0,0,0,.813.812h3.375a.813.813,0,0,0,.812-.812A.813.813,0,0,0-275.337,80.375Z" fill="#e20025"/>
    <path id="Trazado_1894" data-name="Trazado 1894" d="M-270.038,71.148a2.9,2.9,0,0,0,.919-2.12,2.907,2.907,0,0,0-2.906-2.907,2.907,2.907,0,0,0-2.906,2.907,2.9,2.9,0,0,0,.919,2.12,4.505,4.505,0,0,0-2.513,4.036.812.812,0,0,0,.813.812h7.375a.812.812,0,0,0,.812-.812A4.505,4.505,0,0,0-270.038,71.148Zm-1.987-3.4a1.282,1.282,0,0,1,1.281,1.282,1.282,1.282,0,0,1-1.281,1.281,1.283,1.283,0,0,1-1.281-1.281A1.283,1.283,0,0,1-272.025,67.746Zm-2.758,6.625a2.881,2.881,0,0,1,2.758-2.062,2.881,2.881,0,0,1,2.758,2.062Z" fill="#e20025"/>
  </g>
</svg>
