<svg id="Grupo_437" data-name="Grupo 437" xmlns="http://www.w3.org/2000/svg" width="16" height="16" viewBox="0 0 16 16">
  <path id="Trazado_1842" data-name="Trazado 1842" d="M323.442.586a2,2,0,0,0-2.828,0l-7.586,7.586V11h2.828l7.586-7.586a2,2,0,0,0,0-2.828Z" transform="translate(-308.028)"/>
  <path id="Trazado_1843" data-name="Trazado 1843" d="M308.028,4a2,2,0,0,1,2-2h4a1,1,0,0,1,0,2h-4V14h10V10a1,1,0,0,1,2,0v4a2,2,0,0,1-2,2h-10a2,2,0,0,1-2-2Z" transform="translate(-308.028)" fill-rule="evenodd"/>
</svg>
