<svg xmlns="http://www.w3.org/2000/svg" width="18" height="18" viewBox="0 0 18 18">
  <g id="Grupo_455" data-name="Grupo 455" transform="translate(-1094.085 -135)">
    <path id="Trazado_1876" data-name="Trazado 1876" d="M1094.9,138.812h8.268a3,3,0,0,0,2.888,2.188h0a3,3,0,0,0,2.888-2.188h2.331a.813.813,0,1,0,0-1.625h-2.332a3,3,0,0,0-2.887-2.187h0a3,3,0,0,0-2.888,2.187H1094.9a.813.813,0,0,0,0,1.625Zm11.156-2.187a1.375,1.375,0,1,1-1.375,1.375A1.377,1.377,0,0,1,1106.053,136.625Z" fill="#3f3f3f"/>
    <path id="Trazado_1877" data-name="Trazado 1877" d="M1111.272,143.187h-9.318a3,3,0,0,0-2.869-2.124h0a3,3,0,0,0-2.87,2.124H1094.9a.813.813,0,0,0,0,1.625h1.282a3,3,0,0,0,2.906,2.251h0a3,3,0,0,0,2.905-2.251h9.282a.813.813,0,1,0,0-1.625Zm-12.187,2.251a1.375,1.375,0,1,1,1.375-1.375A1.376,1.376,0,0,1,1099.085,145.438Z" fill="#3f3f3f"/>
    <path id="Trazado_1878" data-name="Trazado 1878" d="M1111.272,149.187h-2.332a3,3,0,0,0-2.887-2.187h0a3,3,0,0,0-2.888,2.187H1094.9a.813.813,0,0,0,0,1.625h8.268a3,3,0,0,0,2.888,2.188h0a3,3,0,0,0,2.888-2.188h2.331a.813.813,0,1,0,0-1.625Zm-5.219,2.188a1.375,1.375,0,1,1,1.375-1.375A1.377,1.377,0,0,1,1106.053,151.375Z" fill="#3f3f3f"/>
  </g>
</svg>
