<svg xmlns="http://www.w3.org/2000/svg" width="20.004" height="16" viewBox="0 0 20.004 16">
  <path id="_009-hide" data-name="009-hide" d="M20.887,12.366a.642.642,0,0,0,0-.733c-.167-.26-4.26-6.3-9.887-6.3A9.2,9.2,0,0,0,6.533,6.585L4.139,4.192a.669.669,0,1,0-.947.947l2.18,2.173a18.162,18.162,0,0,0-4.26,4.32.642.642,0,0,0,0,.733c.167.26,4.26,6.3,9.887,6.3a9.2,9.2,0,0,0,4.467-1.253l2.393,2.393a.685.685,0,0,0,.947,0,.672.672,0,0,0,0-.947l-2.18-2.173a18.162,18.162,0,0,0,4.26-4.32ZM11,17.333c-4.167,0-7.56-4.067-8.514-5.334a17.425,17.425,0,0,1,3.854-3.72l1.4,1.407a4,4,0,0,0,5.574,5.574l1.167,1.16a7.6,7.6,0,0,1-3.48.913Zm1.347-3.047a2.647,2.647,0,0,1-3.634-3.634ZM9.653,9.712a2.647,2.647,0,0,1,3.634,3.634Zm6.007,6.007-1.4-1.407A4,4,0,0,0,8.686,8.739L7.519,7.579A7.6,7.6,0,0,1,11,6.665c4.167,0,7.56,4.067,8.514,5.334a17.425,17.425,0,0,1-3.854,3.72Z" transform="translate(-0.998 -3.996)" fill="#333"/>
</svg>
