<svg xmlns="http://www.w3.org/2000/svg" xmlns:xlink="http://www.w3.org/1999/xlink" width="128" height="65" viewBox="0 0 128 65">
  <defs>
    <clipPath id="clip-path">
      <rect id="Rectángulo_254" data-name="Rectángulo 254" width="128" height="65" transform="translate(1238 67)" fill="#fff" stroke="#707070" stroke-width="1"/>
    </clipPath>
  </defs>
  <g id="Enmascarar_grupo_1" data-name="Enmascarar grupo 1" transform="translate(-1238 -67)" clip-path="url(#clip-path)">
    <g id="help" transform="translate(1252.688 94.231) rotate(-25)">
      <path id="Trazado_1438" data-name="Trazado 1438" d="M64.429,36.96v-22.1A3.862,3.862,0,0,0,60.571,11H7.857A3.862,3.862,0,0,0,4,14.857V52.143A3.862,3.862,0,0,0,7.857,56H48.7A14.135,14.135,0,1,0,64.429,36.96ZM7.857,53.429a1.287,1.287,0,0,1-1.286-1.286V14.857a1.287,1.287,0,0,1,1.286-1.286H60.571a1.287,1.287,0,0,1,1.286,1.286V36.714a14.094,14.094,0,0,0-13.9,16.714Zm54,9A11.571,11.571,0,1,1,73.429,50.857,11.585,11.585,0,0,1,61.857,62.429ZM67,47a5.151,5.151,0,0,1-3.857,4.98v2.735a1.286,1.286,0,1,1-2.571,0V50.857a1.285,1.285,0,0,1,1.286-1.286A2.571,2.571,0,1,0,59.286,47a1.286,1.286,0,1,1-2.571,0A5.143,5.143,0,1,1,67,47ZM63.143,58.571a1.286,1.286,0,1,1-1.286-1.286A1.285,1.285,0,0,1,63.143,58.571ZM56.08,19.823,34.223,32.68a1.286,1.286,0,0,1-1.333-.018L12.319,19.8a1.285,1.285,0,1,1,1.363-2.179L33.592,30.07,54.778,17.607a1.285,1.285,0,1,1,1.3,2.215Z" transform="translate(0 0)" fill="#ff636e"/>
    </g>
  </g>
</svg>
