<svg xmlns="http://www.w3.org/2000/svg" width="20" height="20" viewBox="0 0 20 20">
  <g id="Grupo_670" data-name="Grupo 670" transform="translate(-617.662)">
    <path id="Trazado_2031" data-name="Trazado 2031" d="M627.662,0h0a10,10,0,0,0-10,10h0a10,10,0,0,0,10,10h0a10,10,0,0,0,10-10h0A10,10,0,0,0,627.662,0Zm5.794,15.794A8.194,8.194,0,1,1,621.868,4.206a8.194,8.194,0,1,1,11.588,11.588Z" fill="#664493"/>
    <path id="Trazado_2032" data-name="Trazado 2032" d="M632.106,4.646h-3.472a.91.91,0,0,0,0,1.819h1.277l-2.892,2.892a.909.909,0,0,0,1.286,1.286L631.2,7.751V9.028a.909.909,0,0,0,1.819,0V5.556A.91.91,0,0,0,632.106,4.646Z" fill="#664493"/>
    <path id="Trazado_2033" data-name="Trazado 2033" d="M632.106,11.591a.909.909,0,0,0-.909.909v1.035h-7.07V6.465h1.035a.91.91,0,0,0,0-1.819h-1.945a.909.909,0,0,0-.909.91v8.888a.909.909,0,0,0,.909.91h8.889a.91.91,0,0,0,.91-.91V12.5A.91.91,0,0,0,632.106,11.591Z" fill="#664493"/>
  </g>
</svg>
