<?xml version="1.0" encoding="utf-8"?>
<!-- Generator: Adobe Illustrator 26.5.0, SVG Export Plug-In . SVG Version: 6.00 Build 0)  -->
<svg version="1.1" id="Capa_1" xmlns="http://www.w3.org/2000/svg" xmlns:xlink="http://www.w3.org/1999/xlink" x="0px" y="0px"
	 viewBox="0 0 24 24" style="enable-background:new 0 0 24 24;" xml:space="preserve">
<style type="text/css">
	.st0{fill:#BD181B;}
	.st1{fill:none;}
</style>
<g id="Grupo_536" transform="translate(-1082 -432)">
	<g id="Grupo_534" transform="translate(1040.873 -131.395)">
		<g id="Grupo_522">
			<path id="Trazado_1966" class="st0" d="M51.2,569c0.5-0.5,1.2-0.8,1.9-0.8l0,0c1.5,0,2.7,1.2,2.7,2.8c0,1-0.6,2-1.5,2.5l1.2,1
				c1.9-1.3,2.4-4,1.1-5.9c-0.8-1.2-2.1-1.8-3.5-1.8l0,0c-1.6,0-3,0.9-3.8,2.3l1.2,1C50.7,569.6,50.9,569.2,51.2,569z"/>
			<path id="Trazado_1967" class="st0" d="M62.7,582.7l-17-15c-0.4-0.3-0.9-0.3-1.2,0.1c-0.3,0.4-0.3,0.9,0.1,1.2l7.6,6.7
				c-3.8,0.5-6.7,3.8-6.7,7.7v0.8h15.5v-0.7l0.7,0.6c0.4,0.3,0.9,0.3,1.2-0.1C63.1,583.6,63.1,583.1,62.7,582.7L62.7,582.7z
				 M59.3,582.6H46.9c0.4-3.4,3.4-5.8,6.8-5.5l5.5,4.8C59.3,582.2,59.3,582.4,59.3,582.6z"/>
		</g>
		<rect id="Rectángulo_493" x="41.1" y="563.4" class="st1" width="24" height="24"/>
	</g>
</g>
</svg>
