<svg xmlns="http://www.w3.org/2000/svg" width="24" height="24" viewBox="0 0 24 24">
  <g id="Grupo_663" data-name="Grupo 663" transform="translate(-1125 -526)">
    <path id="Trazado_1973" data-name="Trazado 1973" d="M129.75,556.82h-11.5a3,3,0,0,1-3-3v-5.75a3,3,0,0,1,3-3h11.5a3,3,0,0,1,3,3v5.75A3,3,0,0,1,129.75,556.82Zm-11.5-10.25a1.5,1.5,0,0,0-1.5,1.5v5.75a1.5,1.5,0,0,0,1.5,1.5h11.5a1.5,1.5,0,0,0,1.5-1.5v-5.75a1.5,1.5,0,0,0-1.5-1.5Z" transform="translate(1013 -10.07)" fill="#6e6e6e"/>
    <path id="Trazado_1974" data-name="Trazado 1974" d="M119.5,545.947a.875.875,0,0,1-.875-.875v-1.6a5.288,5.288,0,0,1,5.281-5.282h.188a5.244,5.244,0,0,1,4.522,2.553.875.875,0,0,1-1.5.905,3.508,3.508,0,0,0-3.024-1.708h-.188a3.536,3.536,0,0,0-3.531,3.532v1.6A.875.875,0,0,1,119.5,545.947Z" transform="translate(1013 -10.07)" fill="#6e6e6e"/>
    <rect id="Rectángulo_497" data-name="Rectángulo 497" width="24" height="24" transform="translate(1125 526)" fill="none"/>
  </g>
</svg>
