<svg id="Grupo_221" data-name="Grupo 221" xmlns="http://www.w3.org/2000/svg" xmlns:xlink="http://www.w3.org/1999/xlink" width="20" height="20" viewBox="0 0 20 20">
  <defs>
    <clipPath id="clip-path">
      <rect id="Rectángulo_259" data-name="Rectángulo 259" width="20" height="20" fill="none"/>
    </clipPath>
  </defs>
  <g id="Grupo_220" data-name="Grupo 220" clip-path="url(#clip-path)">
    <path id="Trazado_1575" data-name="Trazado 1575" d="M9.857,1.82a8.182,8.182,0,1,1-8.038,8.323A8.191,8.191,0,0,1,9.857,1.82M9.825,0h0A10,10,0,1,0,20,9.826,10,10,0,0,0,9.825,0" fill="#3e6b88"/>
    <path id="Trazado_1576" data-name="Trazado 1576" d="M15.421,8.4a.912.912,0,0,0-.746-.607l-2.687-.343-1.24-2.407a.909.909,0,0,0-1.63.028L7.962,7.516l-2.673.437a.91.91,0,0,0-.478,1.56l1.974,1.856-.412,2.676a.908.908,0,0,0,1.334.936l2.377-1.3L12.5,14.9a.908.908,0,0,0,1.3-.982l-.506-2.66,1.908-1.924a.91.91,0,0,0,.214-.935M11.67,10.314a.911.911,0,0,0-.247.81l.251,1.32-1.2-.6a.91.91,0,0,0-.846.014L8.448,12.5l.2-1.329a.912.912,0,0,0-.275-.8L7.4,9.45l1.326-.216A.907.907,0,0,0,9.4,8.725l.575-1.216.615,1.2a.911.911,0,0,0,.693.485l1.333.169Z" fill="#3e6b88"/>
  </g>
</svg>
